<?xml version="1.0" encoding="UTF-8"?>
<svg width="18px" height="19px" viewBox="0 0 18 19" version="1.1" xmlns="http://www.w3.org/2000/svg" xmlns:xlink="http://www.w3.org/1999/xlink">
    <!-- Generator: Sketch 41.2 (35397) - http://www.bohemiancoding.com/sketch -->
    <title>Fill 11</title>
    <desc>Created with Sketch.</desc>
    <defs></defs>
    <g id="Symbols" stroke="none" stroke-width="1" fill="none" fill-rule="evenodd">
        <g id="Calendar---Date-Picker-Form" fill="#2D7DAB">
            <path d="M2,17 L16,17 L16,7 L2,7 L2,17 Z M4,4 L6,4 L6,2 L4,2 L4,4 Z M12,4 L14,4 L14,2 L12,2 L12,4 Z M16,3 L16,0.5 C16,0.225 15.776,0 15.5,0 L10.5,0 C10.224,0 10,0.225 10,0.5 L10,3 L8,3 L8,0.5 C8,0.225 7.776,0 7.5,0 L2.5,0 C2.224,0 2,0.225 2,0.5 L2,3 L0,3 L0,19 L18,19 L18,3 L16,3 Z" id="Fill-11"></path>
        </g>
    </g>
</svg>