<?xml version="1.0" encoding="UTF-8" standalone="no"?>
<svg width="18px" height="26px" viewBox="0 0 18 26" version="1.1" xmlns="http://www.w3.org/2000/svg" xmlns:xlink="http://www.w3.org/1999/xlink">
    <!-- Generator: Sketch 41.2 (35397) - http://www.bohemiancoding.com/sketch -->
    <title>Card - Report</title>
    <desc>Created with Sketch.</desc>
    <defs></defs>
    <g id="Desktop-Version-1" stroke="none" stroke-width="1" fill="none" fill-rule="evenodd">
        <g id="2" transform="translate(-168.000000, -1433.000000)">
            <g id="Card---Report" transform="translate(168.000000, 1433.000000)">
                <g id="Group-30">
                    <path d="M6,0 C5,0 4,1.73472348e-16 4,2 L1,2 C0.318039284,2 0,2.28962425 0,3 L0,25 C0,25.7672058 0.318039284,26 1,26 L17,26 C17.7672058,26 18,25.7672058 18,25 L18,3 C18,2.28962425 17.7672058,2 17,2 L14,2 C14,5.20417043e-16 12.6535457,0 12,0 L6,0 Z" id="Path" fill="#9FA7B7"></path>
                    <path d="M3,22.0587248 L3,6.93959732 C3,5.99832215 3.42028986,5.99832215 3.83333333,5.99832215 L14.1666667,5.97142857 C14.6884058,5.97142857 15,5.99832215 15,6.93959732 L15,22.0587248 C15,23 14.6884058,23 14.1666667,23 L3.83333333,23 C3.42028986,23 3,23 3,22.0587248 Z" id="Path" fill="#FFFFFF"></path>
                    <circle id="Oval-10" fill="#FFFFFF" cx="9" cy="3" r="1"></circle>
                </g>
            </g>
        </g>
    </g>
</svg>