
<svg xmlns="http://www.w3.org/2000/svg">
    <g id="error-icon" stroke="none" stroke-width="1" fill="none" fill-rule="evenodd">
        <path d="M20.00125,37.5 C10.35125,37.5 2.5,29.6475 2.5,19.9975 C2.5,10.34875 10.35125,2.5 20.00125,2.5 C29.65,2.5 37.5,10.34875 37.5,19.9975 C37.5,29.6475 29.65,37.5 20.00125,37.5 M20.00125,40 C31.04625,40 40,31.0425 40,19.9975 C40,8.95125 31.04625,0 20.00125,0 C8.95625,0 0,8.95125 0,19.9975 C0,31.0425 8.95625,40 20.00125,40" id="Fill-1" fill="#CD1F2C"></path>
        <path d="M17.395625,29.11375 C17.395625,27.67625 18.563125,26.50875 20.000625,26.50875 C21.438125,26.50875 22.605625,27.67625 22.605625,29.11375 C22.605625,30.55125 21.438125,31.71875 20.000625,31.71875 C18.563125,31.71875 17.395625,30.55125 17.395625,29.11375 L17.395625,29.11375 Z M17.999375,22.86375 L22.001875,22.86375 L22.001875,8.1125 L17.999375,8.1125 L17.999375,22.86375 Z" id="Fill-3" fill="#CD1F2C"></path>
    </g>
</svg>
