<?xml version="1.0" encoding="UTF-8" standalone="no"?>
<svg width="24px" height="26px" viewBox="0 0 24 26" version="1.1" xmlns="http://www.w3.org/2000/svg" xmlns:xlink="http://www.w3.org/1999/xlink">
    <!-- Generator: Sketch 41.2 (35397) - http://www.bohemiancoding.com/sketch -->
    <title>Fill 3</title>
    <desc>Created with Sketch.</desc>
    <defs></defs>
    <g id="Desktop-Version-1" stroke="none" stroke-width="1" fill="none" fill-rule="evenodd">
        <g id="2" transform="translate(-1157.000000, -793.000000)" fill="#9FA7B7">
            <path d="M1174.02962,811 L1170,811 L1170,815.087346 L1168,815.087346 L1168,811 L1163.97031,811 L1163.97031,809 L1168,809 L1168,807 L1168,805 L1170,805 L1170,809 L1174.02962,809 L1174.02962,811 Z M1170,793 L1168,793 L1157,803 L1157,805 L1159,805 C1158.96719,805.19888 1159,817 1159,817 C1159,817 1159,819 1161,819 L1177,819 C1179,819 1179,818 1179,817 L1179,805 L1181,805 L1181,803 L1170,793 Z" id="Fill-3"></path>
        </g>
    </g>
</svg>