<?xml version="1.0" encoding="UTF-8" standalone="no"?>
<svg width="32px" height="24px" viewBox="0 0 32 24" version="1.1" xmlns="http://www.w3.org/2000/svg" xmlns:xlink="http://www.w3.org/1999/xlink">
    <!-- Generator: Sketch 41.2 (35397) - http://www.bohemiancoding.com/sketch -->
    <title>Group 7</title>
    <desc>Created with Sketch.</desc>
    <defs></defs>
    <g id="Desktop-Version-1" stroke="none" stroke-width="1" fill="none" fill-rule="evenodd">
        <g id="Dashboard---Version-1---Wide---Co-Brand-3" transform="translate(-33.000000, -630.000000)" fill="#62B5E5">
            <g id="Left-Nav" transform="translate(-1.000000, 100.000000)">
                <g id="Group-7" transform="translate(34.000000, 530.000000)">
                    <path d="M17.2986,2.2868 C15.5166,0.9668 13.0746,0.1748 10.3686,0.1748 C7.5306,0.1748 5.1546,0.9668 3.1746,2.2868 C1.1946,3.6068 0.0066,5.5868 0.0066,7.7648 C0.0066,9.8108 1.1946,11.7908 3.1746,13.2428 C3.7686,13.5068 4.2306,13.8368 5.0226,14.1668 L5.3526,21.6908 L10.5666,15.3548 C13.2066,15.3548 15.5166,14.6288 17.2986,13.2428 C19.2126,11.7908 20.3346,9.8108 20.3346,7.7648 C20.3346,5.5868 19.2126,3.6068 17.2986,2.2868 Z" id="Fill-1"></path>
                    <path d="M22.671,3.8576 C21.483,3.8576 20.559,3.8576 19.635,4.0556 C20.229,4.6496 20.559,4.9796 20.757,5.5736 C21.483,5.3756 22.077,5.3756 22.671,5.3756 C26.961,5.3756 30.063,7.7516 30.063,10.7216 C30.063,12.7016 28.743,14.3516 26.631,15.4076 L25.707,15.4076 L25.971,15.4076 L25.707,19.8296 L23.067,15.9356 L21.219,16.1336 C19.635,15.9356 18.183,15.3416 17.061,14.5496 C16.533,14.7476 15.939,14.9456 15.477,15.1436 C15.609,15.4076 15.939,15.4076 16.071,15.6056 C17.853,16.9256 19.965,17.5856 22.275,17.6516 L27.027,23.7236 L27.555,16.5296 C28.017,16.4636 28.479,16.1996 28.875,15.6056 C30.855,14.5496 31.911,12.7016 31.911,10.7216 C31.911,8.8076 30.855,6.8936 28.875,5.8376 C27.291,4.4516 24.981,3.8576 22.671,3.8576 Z" id="Fill-13"></path>
                </g>
            </g>
        </g>
    </g>
</svg>