<?xml version="1.0" encoding="UTF-8" standalone="no"?>
<svg width="30px" height="25px" viewBox="0 0 30 25" version="1.1" xmlns="http://www.w3.org/2000/svg" xmlns:xlink="http://www.w3.org/1999/xlink">
    <!-- Generator: Sketch 41.2 (35397) - http://www.bohemiancoding.com/sketch -->
    <title>Group 20</title>
    <desc>Created with Sketch.</desc>
    <defs></defs>
    <g id="Desktop-Version-1" stroke="none" stroke-width="1" fill="none" fill-rule="evenodd">
        <g id="Dashboard---Version-1---Wide---Co-Brand-3" transform="translate(-35.000000, -427.000000)" fill="#62B5E5">
            <g id="Left-Nav" transform="translate(-1.000000, 100.000000)">
                <g id="Group-17">
                    <g id="Group-20" transform="translate(36.000000, 327.000000)">
                        <path d="M27,18.5559417 C27,18.8363996 26.8591926,19 26.5775777,19 L3.42242233,19 C3.28161489,19 3,18.8363996 3,18.5559417 L3,3.42068682 C3,3.21034341 3.28161489,3 3.42242233,3 L26.5775777,3 C26.8591926,3 27,3.21034341 27,3.42068682 L27,18.5559417 Z M28,0 L2,0 C0.758858192,0 0,0.665187113 0,2 L0,20 C0,21.4050662 0.758858192,22 2,22 L13,22 L13,23 L10,23 C8.73544042,23 8.28101324,23.7354404 8,25 L22,25 C21.5784801,23.7354404 21.2645596,23 20,23 L17,23 L17,22 L28,22 C29.4050662,22 30,21.4050662 30,20 L30,2 C30,0.665187113 29.4050662,0 28,0 L28,0 Z" id="Fill-1"></path>
                        <rect id="Rectangle-6" x="6" y="10" width="18" height="2"></rect>
                    </g>
                </g>
            </g>
        </g>
    </g>
</svg>