<?xml version="1.0" encoding="UTF-8" standalone="no"?>
<svg width="28px" height="23px" viewBox="0 0 28 23" version="1.1" xmlns="http://www.w3.org/2000/svg" xmlns:xlink="http://www.w3.org/1999/xlink">
    <!-- Generator: Sketch 41.2 (35397) - http://www.bohemiancoding.com/sketch -->
    <title>Combined Shape</title>
    <desc>Created with Sketch.</desc>
    <defs></defs>
    <g id="Desktop-Version-1" stroke="none" stroke-width="1" fill="none" fill-rule="evenodd">
        <g id="Dashboard---Version-1---Wide---Co-Brand-3" transform="translate(-35.000000, -327.000000)" fill="#62B5E5">
            <g id="Left-Nav" transform="translate(-1.000000, 100.000000)">
                <path d="M47,227 C46,227 45,228 45,229 L45,231 L38,231 C37,231 36,232 36,233 L36,238 L64,238 L64,233 C64,232 63,231 62,231 L55,231 L55,229 C55,228 54,227 53,227 L47,227 Z M47,231 L53,231 L53,229 L47,229 L47,231 Z M53,237 L53,239 C53,239.445087 52.4855491,240 52,240 L48,240 C47.5953757,240 47,239.445087 47,239 L47,237 L36,237 L36,248 C36,249 37,250 38,250 L62,250 C63,250 64,249 64,248 L64,237 L53,237 Z" id="Combined-Shape"></path>
            </g>
        </g>
    </g>
</svg>