<?xml version="1.0" encoding="UTF-8" standalone="no"?>
<svg width="28px" height="24px" viewBox="0 0 28 24" version="1.1" xmlns="http://www.w3.org/2000/svg" xmlns:xlink="http://www.w3.org/1999/xlink">
    <!-- Generator: Sketch 41.2 (35397) - http://www.bohemiancoding.com/sketch -->
    <title>Group 23</title>
    <desc>Created with Sketch.</desc>
    <defs></defs>
    <g id="Desktop-Version-1" stroke="none" stroke-width="1" fill="none" fill-rule="evenodd">
        <g id="Dashboard---Version-1---Wide---Co-Brand-3" transform="translate(-36.000000, -732.000000)" fill="#62B5E5">
            <g id="Left-Nav" transform="translate(-1.000000, 100.000000)">
                <g id="Group-23" transform="translate(51.119559, 644.058867) rotate(-4.000000) translate(-51.119559, -644.058867) translate(36.619559, 632.058867)">
                    <path d="M25.149747,14.6666276 C27.1421364,14.840939 28.3126426,12.9357054 28.4924233,10.8808016 C28.6612655,8.9509266 27.8393823,6.87138146 25.866836,6.80252938 L25.149747,14.6666276 Z" id="Fill-1" transform="translate(26.831827, 10.740131) rotate(-1.000000) translate(-26.831827, -10.740131) "></path>
                    <path d="M22.3178663,1.60913549 C17.9844646,5.24529131 8.84440081,6.45327902 8.84440081,6.45327902 L8.93155656,5.45708432 L7.91059691,5.36776193 L4.89350199,5.10380033 C4.31750199,5.03180033 3.95058307,5.02130561 3.95058307,5.02130561 L3.86342732,6.01750031 C1.87103793,5.84318882 0.757376,7.30461718 0.613376,8.74461718 C0.469376,10.5446172 1.34810347,11.820357 3.34049287,11.9946685 L3.25333712,12.9908632 L4.24953182,13.0780189 L4.07522034,15.0704083 L3.46513014,22.0437712 C3.46513014,22.0437712 3.38156383,22.9989385 4.37775852,23.0860943 L6.34179354,23.2992665 C7.36634262,23.3475615 7.44990893,22.3923942 7.44990893,22.3923942 L8.05999913,15.4190313 L8.32146636,12.4304472 C8.32146636,12.4304472 17.2000629,14.2110436 20.749063,19.5406401 C20.6619072,20.5368348 21.6581019,20.6239905 21.6581019,20.6239905 L23.6504913,20.798302 L25.3936062,0.87440802 L23.4012168,0.700096535 C23.4012168,0.700096535 22.4050221,0.612940792 22.3178663,1.60913549 Z" id="Fill-4" transform="translate(12.995904, 11.999601) rotate(-1.000000) translate(-12.995904, -11.999601) "></path>
                </g>
            </g>
        </g>
    </g>
</svg>