<?xml version="1.0" encoding="UTF-8" standalone="no"?>
<svg width="27px" height="23px" viewBox="0 0 27 23" version="1.1" xmlns="http://www.w3.org/2000/svg" xmlns:xlink="http://www.w3.org/1999/xlink">
    <!-- Generator: Sketch 41.2 (35397) - http://www.bohemiancoding.com/sketch -->
    <title>Group 18</title>
    <desc>Created with Sketch.</desc>
    <defs></defs>
    <g id="Desktop-Version-1" stroke="none" stroke-width="1" fill="none" fill-rule="evenodd">
        <g id="Dashboard---Version-1---Wide---Co-Brand-3" transform="translate(-35.000000, -229.000000)" fill="#62B5E5">
            <g id="Left-Nav" transform="translate(-1.000000, 100.000000)">
                <g id="Group-18" transform="translate(36.000000, 129.000000)">
                    <path d="M2,0 C-3.00206149e-13,0 8.17124146e-14,1 -1.86517468e-13,2.01833333 C8.17124146e-14,2 3,21 3,21 L5,8 C5.245,6.53 6.6,5 8,5 L23,5 L23,4 C22.895,2.915 21.98,2 21,2 L9,2 C9,2 9,0 7,0 L2,0 Z" id="Fill-1"></path>
                    <path d="M9,7 C8.09,7 7,8 7,9 L5,21 C5,21.805 5,23 7,23 L23,23 C23.91,23 24.755,22.12 25,21 C25,21 27,9.14 27,9 C27,7 26,7 25,7 L9,7 Z" id="Fill-4"></path>
                </g>
            </g>
        </g>
    </g>
</svg>