<?xml version="1.0" encoding="UTF-8" standalone="no"?>
<svg width="26px" height="28px" viewBox="0 0 26 28" version="1.1" xmlns="http://www.w3.org/2000/svg" xmlns:xlink="http://www.w3.org/1999/xlink">
    <!-- Generator: Sketch 41.2 (35397) - http://www.bohemiancoding.com/sketch -->
    <title>Combined Shape</title>
    <desc>Created with Sketch.</desc>
    <defs></defs>
    <g id="Desktop-Version-1" stroke="none" stroke-width="1" fill="none" fill-rule="evenodd">
        <g id="Dashboard---Version-1---Wide---Co-Brand-3" transform="translate(-36.000000, -525.000000)" fill="#62B5E5">
            <g id="Left-Nav" transform="translate(-1.000000, 100.000000)">
                <g id="Group-17">
                    <path d="M50.0080026,445.23264 C49.2623666,445.23264 48.814985,444.934386 48.6658578,444.263313 C47.8456582,443.219423 47.2491494,441.728151 46.6526406,440.609697 C45.9070046,439.416679 45.6087502,438.074534 45.086805,436.881517 C44.341169,435.837626 45.086805,434.644609 46.0561318,434.644609 C46.6526406,434.644609 47.1000222,434.570045 47.2491494,434.346355 L44.341169,424.280269 C42.5516426,424.578523 40.4638619,426.069795 40.0164803,428.828648 C39.7927895,430.170793 41.8805702,436.135881 44.1920418,441.728151 C47.1000222,447.544112 50.9027658,452.838127 51.7975289,453.285509 C54.5563821,454.329399 56.6441629,454.329399 58.2845621,452.614436 L51.7975289,444.263313 C51.3501473,444.934386 50.9027658,445.381767 50.0080026,445.23264 Z M49.2772793,432.198923 L47.7860073,425.413635 C47.4131893,424.444309 46.6675533,423.773236 45.3254085,424.071491 L47.7860073,434.286704 C49.1281521,433.988449 49.7992245,433.093686 49.2772793,432.198923 Z M59.6192505,449.751194 L55.2199982,444.009797 C54.8471802,443.264161 53.8778534,443.115034 52.6848358,444.009797 L58.7990509,452.435484 L59.2464325,452.137229 C59.6938141,451.466157 60.1411957,450.571394 59.6192505,449.751194 Z" id="Combined-Shape" transform="translate(49.927152, 439.000000) rotate(-15.000000) translate(-49.927152, -439.000000) "></path>
                </g>
            </g>
        </g>
    </g>
</svg>