<?xml version="1.0" encoding="UTF-8" standalone="no"?>
<svg width="34px" height="20px" viewBox="0 0 34 20" version="1.1" xmlns="http://www.w3.org/2000/svg" xmlns:xlink="http://www.w3.org/1999/xlink">
    <!-- Generator: Sketch 41.2 (35397) - http://www.bohemiancoding.com/sketch -->
    <title>Fill 1</title>
    <desc>Created with Sketch.</desc>
    <defs></defs>
    <g id="Desktop-Version-1" stroke="none" stroke-width="1" fill="none" fill-rule="evenodd">
        <g id="Dashboard---Version-1---Wide---Co-Brand-3" transform="translate(-34.000000, -133.000000)" fill="#FFFFFF">
            <g id="Left-Nav-Active-Link" transform="translate(0.000000, 133.000000)">
                <path d="M34.0352436,18 L39.4593088,18 L39.4593088,15.796649 L37.012591,15.796649 C37.2389632,12.7655913 38.4327265,10.0361668 40.2911477,7.8810058 L42.0510675,9.61852073 L43.6279918,8.06037946 L41.8685238,6.32241833 C44.0527221,4.4831691 46.8247653,3.28868336 49.884631,3.01382225 L49.884631,5.5014046 L52.115369,5.5014046 L52.115369,3.00177476 C55.1684571,3.24897129 57.9445668,4.45773552 60.1332835,6.32063352 L58.3720082,8.06037946 L59.9489325,9.61852073 L61.7034302,7.88591404 C63.5609477,10.0549074 64.7574221,12.7928097 64.9869572,15.796649 L62.541143,15.796649 L62.541143,18 L67.9647564,18 C67.9878003,17.6211736 68,17.2401161 68,16.8563814 C68,6.36837725 59.4385051,0 51.0042925,0 C42.8481757,0 34,6.26887396 34,16.8563814 C34,17.2401161 34.0126515,17.6211736 34.0352436,18 Z M50.8967527,14.1299095 L55.728395,7 L57,7.74916897 L53.3614291,15.5812207 C53.8664183,16.4616921 53.9065983,17.5861439 53.3705609,18.5322666 C52.5760931,19.9356198 50.8159361,20.4170621 49.4397719,19.6059668 C48.0626945,18.7958027 47.5914929,17.0008702 48.3859607,15.5975171 C48.9219981,14.6513944 49.8963626,14.1243222 50.8967527,14.1299095" id="Fill-1"></path>
            </g>
        </g>
    </g>
</svg>