<?xml version="1.0" encoding="utf-8"?>
<!-- Generator: Adobe Illustrator 19.2.1, SVG Export Plug-In . SVG Version: 6.00 Build 0)  -->
<svg version="1.1" id="Layer_1" xmlns="http://www.w3.org/2000/svg" xmlns:xlink="http://www.w3.org/1999/xlink" x="0px" y="0px"
	 viewBox="0 0 272.3 83.6" enable-background="new 0 0 272.3 83.6" xml:space="preserve">
<g>
	<path fill="#77777A" d="M268.2,38.3c-0.4,0-0.8-0.1-1.2-0.2c-0.4-0.2-0.7-0.4-0.9-0.6c-0.3-0.3-0.5-0.6-0.6-0.9
		c-0.2-0.4-0.2-0.7-0.2-1.2v0c0-0.4,0.1-0.8,0.2-1.2c0.2-0.4,0.4-0.7,0.6-1c0.3-0.3,0.6-0.5,1-0.6c0.4-0.2,0.8-0.2,1.2-0.2
		c0.4,0,0.8,0.1,1.2,0.2c0.4,0.2,0.7,0.4,0.9,0.6c0.3,0.3,0.5,0.6,0.6,0.9c0.2,0.4,0.2,0.7,0.2,1.2v0c0,0.4-0.1,0.8-0.2,1.2
		c-0.2,0.4-0.4,0.7-0.6,1c-0.3,0.3-0.6,0.5-1,0.6C269,38.3,268.6,38.3,268.2,38.3z M268.2,38.1c0.4,0,0.7-0.1,1.1-0.2
		s0.6-0.3,0.9-0.6c0.2-0.2,0.4-0.5,0.6-0.9c0.1-0.3,0.2-0.7,0.2-1.1v0c0-0.4-0.1-0.7-0.2-1.1c-0.1-0.3-0.3-0.6-0.6-0.9
		c-0.2-0.2-0.5-0.4-0.9-0.6c-0.3-0.1-0.7-0.2-1.1-0.2c-0.4,0-0.8,0.1-1.1,0.2c-0.3,0.1-0.6,0.3-0.9,0.6c-0.2,0.2-0.4,0.5-0.6,0.9
		c-0.1,0.3-0.2,0.7-0.2,1.1v0c0,0.4,0.1,0.7,0.2,1.1c0.1,0.3,0.3,0.6,0.6,0.9c0.2,0.2,0.5,0.4,0.9,0.6
		C267.5,38,267.8,38.1,268.2,38.1z M267.1,33.7h1.4c0.2,0,0.4,0,0.5,0.1c0.2,0.1,0.3,0.1,0.4,0.2c0.1,0.1,0.1,0.2,0.2,0.3
		c0,0.1,0.1,0.2,0.1,0.3v0c0,0.2-0.1,0.4-0.2,0.6c-0.1,0.1-0.3,0.3-0.6,0.3l1,1.2h-0.6l-0.9-1.2h0h-0.8v1.2h-0.5V33.7z M268.4,35.2
		c0.2,0,0.4,0,0.5-0.1c0.1-0.1,0.2-0.2,0.2-0.4v0c0-0.2-0.1-0.3-0.2-0.4c-0.1-0.1-0.3-0.1-0.5-0.1h-0.9v1.1H268.4z"/>
	<g>
		<path fill="#61B4E4" d="M87.9,41.6L87.9,41.6c0-5.3,4.2-9.5,9.9-9.5c5.6,0,9.8,4.2,9.8,9.4v0.1c0,5.2-4.2,9.5-9.9,9.5
			C92.1,51,87.9,46.9,87.9,41.6z M102.5,41.6L102.5,41.6c0-2.7-1.9-5.1-4.8-5.1c-3,0-4.7,2.3-4.7,5v0.1c0,2.7,1.9,5,4.8,5
			C100.7,46.6,102.5,44.3,102.5,41.6z"/>
		<path fill="#61B4E4" d="M109.4,32.5h5.2V35c1.2-1.5,2.7-2.9,5.3-2.9c3.9,0,6.2,2.6,6.2,6.8v11.8h-5.2V40.5c0-2.4-1.2-3.7-3.1-3.7
			c-2,0-3.2,1.3-3.2,3.7v10.1h-5.2V32.5z"/>
		<path fill="#61B4E4" d="M127.9,41.6L127.9,41.6c0-5.3,3.7-9.5,9-9.5c6.1,0,8.9,4.7,8.9,9.9c0,0.4,0,0.9-0.1,1.4h-12.7
			c0.5,2.3,2.1,3.6,4.4,3.6c1.7,0,3-0.5,4.4-1.9l3,2.6c-1.7,2.1-4.1,3.4-7.4,3.4C132,51,127.9,47.2,127.9,41.6z M140.8,40.1
			c-0.3-2.3-1.7-3.9-3.8-3.9c-2.1,0-3.5,1.5-3.9,3.9H140.8z"/>
		<path fill="#77777A" d="M147.3,41.6L147.3,41.6c0-5.3,4-9.5,9.5-9.5c3.4,0,5.6,1.2,7.3,3.1l-3.2,3.4c-1.2-1.2-2.3-2-4.1-2
			c-2.6,0-4.4,2.3-4.4,5v0.1c0,2.8,1.8,5,4.6,5c1.7,0,2.9-0.8,4.2-1.9l3,3.1c-1.8,1.9-3.8,3.3-7.4,3.3
			C151.3,51,147.3,46.8,147.3,41.6z"/>
		<path fill="#77777A" d="M165,45.4L165,45.4c0-4,3-5.9,7.3-5.9c1.8,0,3.2,0.3,4.4,0.7V40c0-2.1-1.3-3.3-3.9-3.3c-2,0-3.4,0.4-5,1
			l-1.3-3.9c2-0.9,4-1.5,7.1-1.5c2.8,0,4.8,0.7,6.1,2c1.4,1.4,2,3.4,2,5.8v10.6h-5v-2c-1.3,1.4-3,2.3-5.5,2.3
			C167.8,51,165,49,165,45.4z M176.9,44.2v-0.9c-0.9-0.4-2-0.7-3.3-0.7c-2.2,0-3.6,0.9-3.6,2.5v0.1c0,1.4,1.2,2.2,2.8,2.2
			C175.2,47.4,176.9,46.1,176.9,44.2z"/>
		<path fill="#77777A" d="M184.5,25.9h5.2v24.8h-5.2V25.9z"/>
		<path fill="#77777A" d="M193,25.9h5.2v24.8H193V25.9z"/>
	</g>
	<path fill="#61B4E4" d="M209.3,51c-1.3,0-2.5-0.2-3.6-0.7c-1.1-0.5-2.1-1.1-2.9-2c-0.8-0.8-1.4-1.8-1.9-2.9
		c-0.5-1.1-0.7-2.3-0.7-3.5v-0.1c0-1.2,0.2-2.4,0.7-3.5c0.5-1.1,1.1-2.1,1.9-2.9c0.8-0.8,1.8-1.5,2.9-2c1.1-0.5,2.3-0.7,3.6-0.7
		c0.8,0,1.6,0.1,2.3,0.2c0.7,0.2,1.3,0.4,1.9,0.7c0.6,0.3,1.1,0.6,1.6,1c0.5,0.4,0.9,0.8,1.3,1.2l-1.7,1.8c-0.7-0.7-1.5-1.3-2.3-1.9
		c-0.8-0.5-1.8-0.8-3-0.8c-0.9,0-1.7,0.2-2.5,0.5c-0.8,0.4-1.4,0.8-2,1.4c-0.6,0.6-1,1.3-1.3,2.2c-0.3,0.8-0.5,1.7-0.5,2.7v0.1
		c0,1,0.2,1.8,0.5,2.7c0.3,0.8,0.8,1.6,1.4,2.2c0.6,0.6,1.3,1.1,2,1.5c0.8,0.4,1.6,0.5,2.6,0.5c1.1,0,2.1-0.2,3-0.7
		c0.9-0.5,1.7-1.1,2.4-1.9l1.7,1.6c-0.9,1-1.9,1.8-3,2.4C212.4,50.7,211,51,209.3,51z"/>
	<path fill="#61B4E4" d="M224.3,51c-0.8,0-1.6-0.1-2.4-0.3c-0.8-0.2-1.5-0.6-2.1-1c-0.6-0.5-1.1-1-1.5-1.7c-0.4-0.7-0.6-1.5-0.6-2.4
		v-0.1c0-1,0.2-1.8,0.5-2.5c0.4-0.7,0.9-1.3,1.5-1.8c0.7-0.5,1.5-0.8,2.4-1.1c0.9-0.2,1.9-0.4,3-0.4c1.1,0,2.1,0.1,2.9,0.2
		c0.8,0.1,1.6,0.3,2.4,0.5v-0.5c0-1.6-0.5-2.7-1.4-3.5c-0.9-0.8-2.2-1.2-3.8-1.2c-1,0-2,0.1-2.8,0.3c-0.8,0.2-1.7,0.5-2.5,0.9
		l-0.8-2.2c1-0.5,2-0.8,3-1.1c1-0.3,2.1-0.4,3.4-0.4c2.5,0,4.4,0.6,5.7,1.9c1.2,1.2,1.8,2.9,1.8,5.2v10.7h-2.6V48
		c-0.6,0.8-1.4,1.5-2.5,2.1C227.2,50.7,225.9,51,224.3,51z M224.9,48.9c0.8,0,1.6-0.1,2.3-0.3c0.7-0.2,1.3-0.5,1.8-1
		c0.5-0.4,0.9-0.9,1.3-1.5c0.3-0.6,0.5-1.2,0.5-1.9v-1.6c-0.7-0.2-1.4-0.3-2.2-0.5c-0.8-0.2-1.8-0.2-2.9-0.2c-1.6,0-2.9,0.3-3.8,1
		c-0.9,0.6-1.3,1.5-1.3,2.6v0.1c0,0.5,0.1,1,0.4,1.5c0.2,0.4,0.6,0.8,1,1.1c0.4,0.3,0.9,0.5,1.4,0.7
		C223.7,48.8,224.3,48.9,224.9,48.9z"/>
	<path fill="#61B4E4" d="M236.5,33.1h2.6v4.6c0.3-0.7,0.7-1.4,1.2-2c0.5-0.6,1-1.1,1.6-1.6c0.6-0.4,1.3-0.8,2-1
		c0.7-0.2,1.5-0.3,2.3-0.3v2.8H246c-0.9,0-1.9,0.2-2.7,0.5c-0.8,0.3-1.6,0.8-2.2,1.5c-0.6,0.7-1.1,1.5-1.5,2.5
		c-0.4,1-0.5,2.2-0.5,3.5v7h-2.6V33.1z"/>
	<path fill="#61B4E4" d="M249.2,42.9c0.1,0.9,0.3,1.8,0.7,2.5c0.4,0.7,0.8,1.3,1.4,1.8c0.6,0.5,1.2,0.9,1.9,1.1
		c0.7,0.3,1.4,0.4,2.2,0.4c1.2,0,2.3-0.2,3.1-0.7c0.9-0.5,1.7-1.1,2.4-1.8l1.6,1.5c-0.9,1-1.9,1.8-3,2.4c-1.1,0.6-2.5,0.9-4.2,0.9
		c-1.2,0-2.3-0.2-3.4-0.7c-1.1-0.4-2-1.1-2.8-1.9c-0.8-0.8-1.4-1.8-1.9-2.9c-0.5-1.1-0.7-2.4-0.7-3.7c0-1.3,0.2-2.5,0.6-3.6
		c0.4-1.1,1-2.1,1.7-2.9c0.7-0.8,1.6-1.5,2.7-2c1-0.5,2.2-0.7,3.4-0.7c1.3,0,2.4,0.2,3.5,0.7c1,0.5,1.9,1.1,2.6,2
		c0.7,0.8,1.2,1.8,1.6,3c0.4,1.1,0.5,2.3,0.5,3.6c0,0.1,0,0.2,0,0.4c0,0.1,0,0.3,0,0.5H249.2z M260.5,40.8c-0.1-0.8-0.2-1.5-0.5-2.2
		c-0.3-0.7-0.6-1.3-1.1-1.9c-0.5-0.5-1-1-1.7-1.3c-0.7-0.3-1.4-0.5-2.3-0.5c-0.7,0-1.4,0.1-2.1,0.4c-0.7,0.3-1.2,0.7-1.7,1.2
		c-0.5,0.5-0.9,1.2-1.2,1.9c-0.3,0.7-0.5,1.5-0.6,2.3H260.5z"/>
	<g>
		<path fill="#77777A" d="M127,59.9h1.3l4.2,6.3l4.2-6.3h1.3v11.5h-1.3V62l-4.2,6.1h-0.1l-4.2-6.1v9.3H127V59.9z"/>
		<path fill="#77777A" d="M147,59.8h1.2l5.2,11.5H152l-1.3-3h-6.2l-1.4,3h-1.3L147,59.8z M150.2,67.1l-2.6-5.8l-2.6,5.8H150.2z"/>
		<path fill="#77777A" d="M157.3,59.9h1.2l7.2,9.2v-9.2h1.3v11.5h-1l-7.4-9.4v9.4h-1.3V59.9z"/>
		<path fill="#77777A" d="M176,59.8h1.2l5.2,11.5h-1.4l-1.3-3h-6.2l-1.4,3h-1.3L176,59.8z M179.2,67.1l-2.6-5.8l-2.6,5.8H179.2z"/>
		<path fill="#77777A" d="M191.7,71.5c-0.9,0-1.7-0.2-2.4-0.5c-0.7-0.3-1.3-0.7-1.8-1.3c-0.5-0.5-0.9-1.2-1.2-1.9
			c-0.3-0.7-0.4-1.5-0.4-2.3v0c0-0.8,0.1-1.5,0.4-2.2c0.3-0.7,0.7-1.3,1.2-1.9c0.5-0.5,1.1-1,1.8-1.3c0.7-0.3,1.5-0.5,2.3-0.5
			c0.5,0,0.9,0,1.3,0.1c0.4,0.1,0.8,0.2,1.1,0.3c0.3,0.1,0.7,0.3,1,0.5c0.3,0.2,0.6,0.4,0.9,0.6l-0.8,1c-0.2-0.2-0.4-0.4-0.7-0.5
			c-0.2-0.2-0.5-0.3-0.8-0.4c-0.3-0.1-0.6-0.2-0.9-0.3c-0.3-0.1-0.7-0.1-1.1-0.1c-0.6,0-1.2,0.1-1.8,0.4c-0.5,0.3-1,0.6-1.4,1
			c-0.4,0.4-0.7,0.9-0.9,1.5c-0.2,0.6-0.3,1.2-0.3,1.8v0c0,0.7,0.1,1.3,0.3,1.9c0.2,0.6,0.5,1.1,0.9,1.5c0.4,0.4,0.9,0.8,1.4,1
			c0.6,0.2,1.2,0.4,1.9,0.4c0.7,0,1.3-0.1,1.8-0.3c0.6-0.2,1.1-0.5,1.5-0.8v-2.8h-3.5v-1.2h4.7v4.6c-0.5,0.5-1.2,0.9-2,1.2
			C193.5,71.3,192.6,71.5,191.7,71.5z"/>
		<path fill="#77777A" d="M200.8,59.9h8.3V61h-7V65h6.3v1.2h-6.3v4h7.1v1.2h-8.4V59.9z"/>
		<path fill="#77777A" d="M213.3,59.9h1.3l4.2,6.3l4.2-6.3h1.3v11.5H223V62l-4.2,6.1h-0.1l-4.2-6.1v9.3h-1.3V59.9z"/>
		<path fill="#77777A" d="M229.1,59.9h8.3V61h-7V65h6.3v1.2h-6.3v4h7.1v1.2h-8.4V59.9z"/>
		<path fill="#77777A" d="M241.7,59.9h1.2l7.2,9.2v-9.2h1.3v11.5h-1l-7.4-9.4v9.4h-1.3V59.9z"/>
		<path fill="#77777A" d="M259.3,61.1h-3.8v-1.2h9v1.2h-3.8v10.3h-1.3V61.1z"/>
	</g>
	<g>
		<path fill="#61B4E4" d="M82.1,42.4c-0.1-3,0.6-6.1,2.1-8.7c0.1-0.2,0.3-0.4,0.4-0.6c0.1-0.1,0.1-0.2,0.2-0.3
			c0.2-0.3,0.4-0.5,0.6-0.8c0,0,0.1-0.1,0.1-0.1c0.3-0.4,0.6-0.8,1-1.1c3.1-3.2,7.2-4.8,11.3-4.8c1.2,0,2.5,0.1,3.7,0.4l10.6-22.6
			c-4.6-1.8-9.5-2.6-14.4-2.6c-5.8,0-11.6,1.2-16.9,3.7c-4.3,1.9-8.1,4.6-11.4,7.7c0,0,0,0,0,0c0,0,0,0,0,0
			c-2.3,2.2-11.8,12.3-12.4,28.2c0,0.5,0,1.1,0,1.6c-0.1,2.8-1,5.5-2.6,7.9C54,51,53.6,51.6,53,52.3c-3.1,3.4-7.3,5.1-11.5,5.1
			c-3.8,0-7.6-1.4-10.6-4.2C24.4,47.3,24,37.4,29.9,31c1.5-1.7,3.3-2.9,5.3-3.7c0,0,0,0,0,0c0.3-0.1,0.5-0.2,0.8-0.3
			c0,0,0.1,0,0.1,0c0.5-0.2,1-0.3,1.4-0.4c0.1,0,0.2-0.1,0.3-0.1c0.2,0,0.4-0.1,0.6-0.1c0.1,0,0.2,0,0.3-0.1c0.3,0,0.5-0.1,0.8-0.1
			c0,0,0.1,0,0.1,0c1.2-0.1,2.4-0.1,3.6,0c1.5,0.2,3,0.5,4.4,1.1c0.1,0.1,0.3,0.1,0.4,0.2c0.2,0.1,0.5,0.2,0.7,0.3
			c0.2,0.1,0.4,0.2,0.6,0.3c0.2,0.1,0.4,0.2,0.5,0.3c0.3,0.2,0.5,0.3,0.8,0.5c0.1,0.1,0.3,0.2,0.4,0.3c0.4,0.3,0.8,0.6,1.1,0.9
			c0.4,0.3,0.7,0.7,1,1c0.1,0.1,0.2,0.3,0.3,0.4c0.2,0.2,0.4,0.5,0.6,0.7c0.1,0.1,0.2,0.3,0.3,0.4c0.2,0.3,0.4,0.6,0.5,0.8
			c0.1,0.2,0.2,0.4,0.3,0.6c0.1,0.1,0.2,0.3,0.2,0.4c0.9-4.9,2.6-9.6,5.2-14.1c2.8-4.9,5.9-8.2,7.1-9.4c-0.1-0.1-0.2-0.2-0.3-0.3
			c-0.2-0.1-0.3-0.3-0.5-0.4c-0.3-0.3-0.6-0.5-1-0.8c-0.2-0.1-0.4-0.3-0.6-0.4c-0.4-0.3-0.7-0.5-1.1-0.8C64.2,8.2,64,8.1,63.8,8
			c-0.4-0.3-0.9-0.6-1.3-0.8c-0.2-0.1-0.4-0.3-0.7-0.4c-0.3-0.2-0.6-0.3-0.9-0.5c-0.2-0.1-0.5-0.3-0.7-0.4c-0.3-0.2-0.7-0.3-1-0.5
			c-0.2-0.1-0.4-0.2-0.6-0.3c-0.5-0.2-1-0.4-1.5-0.7c-0.2-0.1-0.5-0.2-0.7-0.3c-0.3-0.1-0.6-0.2-0.9-0.4c-0.3-0.1-0.5-0.2-0.8-0.3
			c-0.3-0.1-0.7-0.2-1-0.3c-0.2-0.1-0.5-0.1-0.7-0.2c-0.5-0.2-1-0.3-1.5-0.4c-0.2-0.1-0.5-0.1-0.7-0.2c-0.3-0.1-0.6-0.2-1-0.2
			C49.6,2.1,49.3,2,49.1,2c-0.3-0.1-0.7-0.1-1-0.2c-0.2,0-0.5-0.1-0.7-0.1c0,0,0,0-0.1,0c0,0,0,0,0,0C34.6-0.2,21.1,4.1,11.8,14.3
			C-3.4,30.7-2.3,56.2,14.1,71.3C21.8,78.5,31.7,82,41.4,82c9.6,0,19.2-3.4,26.8-10.2l0,0c0.4-0.4,0.9-0.8,1.3-1.2c0,0,0,0,0,0
			C81,60.7,82.1,46.5,82.1,42.4z"/>
		<path fill="#61B4E4" d="M97.4,57.2c-3.8,0-7.6-1.4-10.6-4.2c-1.4-1.3-2.5-2.7-3.3-4.3c-1.1,6.5-4.2,16-12.5,23.3
			c7.6,6.6,17.1,9.9,26.5,9.9c3.9,0,7.8-0.6,11.6-1.7l-4.6-24.7C102.2,56.6,99.8,57.2,97.4,57.2z"/>
	</g>
</g>
</svg>
