<?xml version="1.0" encoding="UTF-8" standalone="no"?>
<svg width="27px" height="24px" viewBox="0 0 27 24" version="1.1" xmlns="http://www.w3.org/2000/svg" xmlns:xlink="http://www.w3.org/1999/xlink">
    <!-- Generator: Sketch 41.2 (35397) - http://www.bohemiancoding.com/sketch -->
    <title>Group 12</title>
    <desc>Created with Sketch.</desc>
    <defs></defs>
    <g id="Desktop-Version-1" stroke="none" stroke-width="1" fill="none" fill-rule="evenodd">
        <g id="2" transform="translate(-163.000000, -652.000000)">
            <g id="Group-31" transform="translate(163.000000, 652.000000)">
                <g id="Group-12">
                    <path d="M3.46337743,13.4847507 C1.66687629,12.1277801 0.5,9.93440972 0.5,7.45954515 C0.5,3.33975212 3.73349903,0 7.72222222,0 C10.0847541,0 12.1823362,1.17166046 13.5,2.98309082 C14.8176638,1.17166046 16.9152459,0 19.2777778,0 C23.266501,0 26.5,3.33975212 26.5,7.45954515 C26.5,9.94096453 25.3269345,12.1393966 23.522335,13.4955151 L13.3321873,23.8087585 L3.46337743,13.4847507 Z" id="Combined-Shape" fill="#7E2982"></path>
                    <polyline id="Path-2" stroke="#FFFFFF" stroke-width="2" points="1 11.8333333 6.5 11.8333333 9 8.5 13 16 17 6 19.8571429 11.8333333 26 11.8333333"></polyline>
                </g>
            </g>
        </g>
    </g>
</svg>
