<?xml version="1.0" encoding="UTF-8" standalone="no"?>
<svg width="16px" height="16px" viewBox="0 0 16 16" version="1.1" xmlns="http://www.w3.org/2000/svg" xmlns:xlink="http://www.w3.org/1999/xlink">
    <!-- Generator: Sketch 41.2 (35397) - http://www.bohemiancoding.com/sketch -->
    <title>Activity - Plus - Expansion</title>
    <desc>Created with Sketch.</desc>
    <defs></defs>
    <g id="Symbols" stroke="none" stroke-width="1" fill="none" fill-rule="evenodd">
        <g id="Activity---Plus---Expansion" fill="#2D7DAB">
            <path d="M8,11 L4,7 L5,6 L8,9 L11,6 L12,7 L8,11 Z M7.992,2 C4.594,2 1.992,4.601 1.992,8 C1.992,11.399 4.594,14 7.992,14 C11.391,14 13.992,11.399 13.992,8 C13.992,4.601 11.391,2 7.992,2 L7.992,2 Z M8,16 C3.582,16 0,12.418 0,8 C0,3.582 3.582,0 8,0 C12.418,0 16,3.582 16,8 C16,12.418 12.418,16 8,16 L8,16 Z" id="Fill-1"></path>
        </g>
    </g>
</svg>
