<?xml version="1.0" encoding="UTF-8"?>
<svg width="18px" height="18px" viewBox="0 0 18 18" version="1.1" xmlns="http://www.w3.org/2000/svg" xmlns:xlink="http://www.w3.org/1999/xlink">
    <!-- Generator: Sketch 42 (36781) - http://www.bohemiancoding.com/sketch -->
    <title>Search Icon</title>
    <desc>Created with Sketch.</desc>
    <defs></defs>
    <g id="Final-Desktop---1640px-/-1360px-/-1240px-/-1024px" stroke="none" stroke-width="1" fill="none" fill-rule="evenodd">
        <g id="Create-Order-Start---1360" transform="translate(-1026.000000, -391.000000)" fill="#2D7DAB">
            <g id="Order-Area" transform="translate(140.000000, 340.000000)">
                <g id="Form---Dropdown" transform="translate(481.000000, 44.000000)">
                    <g id="Search-Icon" transform="translate(405.000000, 7.000000)">
                        <path d="M13.8070086,11.4758761 L17.6160488,15.281869 L17.6282377,15.2940579 C17.8750635,15.5500254 18,15.8821737 18,16.214322 C18,16.5525648 17.8720163,16.8908075 17.6160488,17.1437278 L17.1437278,17.6160488 C16.8877603,17.8720163 16.5495175,18 16.214322,18 C15.8760792,18 15.5378365,17.8720163 15.281869,17.6160488 L11.4728288,13.8070086 C10.3179279,14.5383443 8.94972067,14.9619096 7.4809548,14.9619096 C5.41493144,14.9619096 3.54393093,14.1239208 2.19095988,12.7709497 C0.837988827,11.4179787 0,9.54697816 0,7.4809548 C0,5.41493144 0.837988827,3.54393093 2.19095988,2.19095988 C3.54393093,0.837988827 5.41493144,0 7.4809548,0 C9.54697816,0 11.4179787,0.837988827 12.7709497,2.19095988 C14.1239208,3.54393093 14.9619096,5.41493144 14.9619096,7.4809548 C14.9619096,8.94972067 14.5383443,10.3179279 13.8070086,11.4758761 Z M11.2116013,3.78839869 C10.7283497,3.30514706 10.1507353,2.91339869 9.50735294,2.64746732 C8.88684641,2.39011438 8.20915033,2.25 7.5,2.25 C6.79084967,2.25 6.11315359,2.39011438 5.49264706,2.64746732 C4.84926471,2.91339869 4.26879085,3.30514706 3.78839869,3.78839869 C3.30514706,4.26879085 2.91625817,4.84926471 2.64746732,5.49264706 C2.39297386,6.11315359 2.25,6.79084967 2.25,7.5 C2.25,8.20915033 2.39297386,8.88970588 2.64746732,9.50735294 C2.91339869,10.1507353 3.30514706,10.7283497 3.78839869,11.2116013 C4.26879085,11.6948529 4.84926471,12.0866013 5.49264706,12.3525327 C6.11315359,12.6070261 6.79084967,12.75 7.5,12.75 C8.20915033,12.75 8.88684641,12.6070261 9.50735294,12.3525327 C10.1507353,12.0866013 10.7283497,11.6948529 11.2116013,11.2116013 C11.6948529,10.7283497 12.0866013,10.1507353 12.3525327,9.50735294 C12.6070261,8.88684641 12.75,8.20915033 12.75,7.5 C12.75,6.79084967 12.6070261,6.11315359 12.3525327,5.49264706 C12.0866013,4.84926471 11.6948529,4.26879085 11.2116013,3.78839869 Z" id="Combined-Shape"></path>
                    </g>
                </g>
            </g>
        </g>
    </g>
</svg>