<?xml version="1.0" encoding="UTF-8" standalone="no"?>
<svg width="16px" height="16px" viewBox="0 0 16 16" version="1.1" xmlns="http://www.w3.org/2000/svg" xmlns:xlink="http://www.w3.org/1999/xlink">
    <!-- Generator: Sketch 41.2 (35397) - http://www.bohemiancoding.com/sketch -->
    <title>Fill 1</title>
    <desc>Created with Sketch.</desc>
    <defs></defs>
    <g id="Desktop-Version-1" stroke="none" stroke-width="1" fill="none" fill-rule="evenodd">
        <g id="Dashboard---Version-1---Narrow" transform="translate(-1035.000000, -1438.000000)" fill="#018421">
            <g id="5" transform="translate(140.000000, 1095.000000)">
                <path d="M901.992,354 L898.992,351 L899.992,350 L901.992,352 L905.992,348 L906.992,349 L901.992,354 Z M902.992,345 C899.593,345 896.992,347.601 896.992,351 C896.992,354.399 899.593,357 902.992,357 C906.391,357 908.992,354.399 908.992,351 C908.992,347.601 906.391,345 902.992,345 L902.992,345 Z M903,359 C898.581,359 895,355.418 895,351 C895,346.582 898.581,343 903,343 C907.418,343 911,346.582 911,351 C911,355.418 907.418,359 903,359 L903,359 Z" id="Fill-1"></path>
            </g>
        </g>
    </g>
</svg>