<?xml version="1.0" encoding="UTF-8" standalone="no"?>
<svg width="16px" height="16px" viewBox="0 0 16 16" version="1.1" xmlns="http://www.w3.org/2000/svg" xmlns:xlink="http://www.w3.org/1999/xlink">
    <!-- Generator: Sketch 41.2 (35397) - http://www.bohemiancoding.com/sketch -->
    <title>Group 40</title>
    <desc>Created with Sketch.</desc>
    <defs></defs>
    <g id="Desktop-Version-1" stroke="none" stroke-width="1" fill="none" fill-rule="evenodd">
        <g id="Dashboard---Version-1---Narrow" transform="translate(-1035.000000, -1491.000000)" fill="#BD121C">
            <g id="5" transform="translate(140.000000, 1095.000000)">
                <g id="Group-40" transform="translate(895.000000, 396.000000)">
                    <path d="M1.992,8 C1.992,11.399 4.593,14 7.992,14 C11.391,14 13.992,11.399 13.992,8 C13.992,4.601 11.391,2 7.992,2 C4.593,2 1.992,4.601 1.992,8 Z M8,16 C3.581,16 0,12.418 0,8 C0,3.582 3.581,0 8,0 C12.418,0 16,3.582 16,8 C16,12.418 12.418,16 8,16 L8,16 Z" id="Fill-1"></path>
                    <polygon id="Path" points="4 13 3 12 12 3 13 4"></polygon>
                </g>
            </g>
        </g>
    </g>
</svg>