<?xml version="1.0" encoding="UTF-8" standalone="no"?>
<svg width="16px" height="16px" viewBox="0 0 16 16" version="1.1" xmlns="http://www.w3.org/2000/svg" xmlns:xlink="http://www.w3.org/1999/xlink">
    <!-- Generator: Sketch 41.2 (35397) - http://www.bohemiancoding.com/sketch -->
    <title>Fill 1</title>
    <desc>Created with Sketch.</desc>
    <defs></defs>
    <g id="Desktop-Version-1" stroke="none" stroke-width="1" fill="none" fill-rule="evenodd">
        <g id="Dashboard---Version-1---Narrow" transform="translate(-1035.000000, -1245.000000)" fill="#F4682C">
            <g id="5" transform="translate(140.000000, 1095.000000)">
                <path d="M899.007992,159 L899,157 L907,157 L907,159 L899.007992,159 Z M902.992,152 C899.593,152 896.992,154.601 896.992,158 C896.992,161.399 899.593,164 902.992,164 C906.391,164 908.992,161.399 908.992,158 C908.992,154.601 906.391,152 902.992,152 L902.992,152 Z M903,166 C898.581,166 895,162.418 895,158 C895,153.582 898.581,150 903,150 C907.418,150 911,153.582 911,158 C911,162.418 907.418,166 903,166 L903,166 Z" id="Fill-1"></path>
            </g>
        </g>
    </g>
</svg>