<?xml version="1.0" encoding="UTF-8" standalone="no"?>
<svg width="16px" height="16px" viewBox="0 0 16 16" version="1.1" xmlns="http://www.w3.org/2000/svg" xmlns:xlink="http://www.w3.org/1999/xlink">
    <!-- Generator: Sketch 41.2 (35397) - http://www.bohemiancoding.com/sketch -->
    <title>Fill 1</title>
    <desc>Created with Sketch.</desc>
    <defs></defs>
    <g id="Desktop-Version-1" stroke="none" stroke-width="1" fill="none" fill-rule="evenodd">
        <g id="Dashboard---Version-1---Narrow" transform="translate(-1036.000000, -389.000000)" fill="#F6BB00">
            <g id="1" transform="translate(140.000000, 239.000000)">
                <path d="M899.994006,159 L899.992,157 L902,157 L902,159 L899.994006,159 Z M902.994006,159 L902.992,157 L905,157 L905,159 L902.994006,159 Z M905.994006,159 L905.992,157 L908,157 L908,159 L905.994006,159 Z M903.992,152 C900.593,152 897.992,154.601 897.992,158 C897.992,161.399 900.593,164 903.992,164 C907.391,164 909.992,161.399 909.992,158 C909.992,154.601 907.391,152 903.992,152 L903.992,152 Z M904,166 C899.581,166 896,162.418 896,158 C896,153.582 899.581,150 904,150 C908.418,150 912,153.582 912,158 C912,162.418 908.418,166 904,166 L904,166 Z" id="Fill-1"></path>
            </g>
        </g>
    </g>
</svg>