<?xml version="1.0" encoding="UTF-8" standalone="no"?>
<svg width="18px" height="18px" viewBox="0 0 18 18" version="1.1" xmlns="http://www.w3.org/2000/svg" xmlns:xlink="http://www.w3.org/1999/xlink">
    <!-- Generator: Sketch 41.2 (35397) - http://www.bohemiancoding.com/sketch -->
    <title>Toggle View - List</title>
    <desc>Created with Sketch.</desc>
    <defs></defs>
    <g id="Symbols" stroke="none" stroke-width="1" fill="none" fill-rule="evenodd">
        <g id="Toggle-View---List" fill="#2D7DAB">
            <path d="M7,4 L18,4 L18,0 L7,0 L7,4 Z M0,4 L4,4 L4,0 L0,0 L0,4 Z M7,11 L18,11 L18,7 L7,7 L7,11 Z M0,11 L4,11 L4,7 L0,7 L0,11 Z M7,18 L18,18 L18,14 L7,14 L7,18 Z M0,18 L4,18 L4,14 L0,14 L0,18 Z" id="Page-1"></path>
        </g>
    </g>
</svg>
