<?xml version="1.0" encoding="UTF-8" standalone="no"?>
<svg width="18px" height="18px" viewBox="0 0 18 18" version="1.1" xmlns="http://www.w3.org/2000/svg" xmlns:xlink="http://www.w3.org/1999/xlink">
    <!-- Generator: Sketch 41.2 (35397) - http://www.bohemiancoding.com/sketch -->
    <title>Fill 1</title>
    <desc>Created with Sketch.</desc>
    <defs></defs>
    <g id="Desktop-Version-1" stroke="none" stroke-width="1" fill="none" fill-rule="evenodd">
        <g id="Patient-List---Version-1" transform="translate(-1585.000000, -40.000000)" fill="#FFFFFF">
            <g id="Group-4" transform="translate(-1.000000, -1.000000)">
                <g id="Group-24" transform="translate(1580.000000, 35.000000)">
                    <g id="Page-1" transform="translate(6.750000, 6.750000)">
                        <path d="M8.18435013,12.5294118 C6.0397878,12.5294118 4.07029178,10.6764706 4.07029178,8.42647059 C4.07029178,6.04411765 6.0397878,4.14705882 8.18435013,4.14705882 C10.5477454,4.14705882 12.3859416,6.04411765 12.3859416,8.42647059 C12.3859416,10.6764706 10.5477454,12.5294118 8.18435013,12.5294118 M15.6246684,6.48529412 L14.1803714,6.13235294 C14.0928382,6 13.9177719,5.69117647 13.7864721,5.47058824 L14.6618037,4.19117647 C14.9681698,3.75 14.8806366,3.17647059 14.530504,2.82352941 L13.5238727,1.80882353 C13.2612732,1.63235294 12.9986737,1.54411765 12.9111406,1.54411765 C12.6485411,1.54411765 12.3859416,1.63235294 12.2546419,1.76470588 L10.9854111,2.64705882 C10.7228117,2.51470588 10.4602122,2.42647059 10.1976127,2.38235294 L9.89124668,0.794117647 C9.89124668,0.264705882 9.4535809,0 9.01591512,0 L7.4403183,0 C6.95888594,0 6.65251989,0.308823529 6.52122016,0.794117647 L6.30238727,2.38235294 C6.0397878,2.42647059 5.77718833,2.51470588 5.64588859,2.64705882 L4.24535809,1.76470588 C4.07029178,1.63235294 3.72015915,1.54411765 3.67639257,1.54411765 C3.45755968,1.54411765 3.10742706,1.63235294 2.93236074,1.80882353 L2.05702918,2.82352941 C1.57559682,3.17647059 1.57559682,3.75 1.83819629,4.19117647 L2.58222812,5.47058824 C2.58222812,5.69117647 2.58222812,6 2.45092838,6.13235294 L0.831564987,6.48529412 C0.393899204,6.66176471 0,6.97058824 0,7.54411765 L0,8.95588235 C0,9.44117647 0.393899204,9.83823529 0.831564987,9.88235294 L2.45092838,10.3235294 C2.58222812,10.4558824 2.58222812,10.7647059 2.58222812,10.8970588 L1.83819629,12.3088235 C1.57559682,12.6617647 1.57559682,13.3235294 2.05702918,13.5882353 L2.93236074,14.6029412 C3.10742706,14.6911765 3.45755968,14.9558824 3.67639257,14.9558824 C3.72015915,14.9558824 4.07029178,14.9558824 4.24535809,14.6029412 L5.64588859,13.8088235 C5.77718833,13.9411765 6.0397878,13.9852941 6.30238727,14.1176471 L6.52122016,15.7058824 C6.65251989,16.1470588 6.95888594,16.5 7.4403183,16.5 L9.01591512,16.5 C9.4535809,16.5 9.89124668,16.1470588 9.89124668,15.7058824 L10.1976127,14.1176471 C10.4602122,13.9852941 10.7228117,13.9411765 10.9854111,13.8088235 L12.2546419,14.6029412 C12.3859416,14.9558824 12.6485411,14.9558824 12.9111406,14.9558824 C12.9986737,14.9558824 13.2612732,14.6911765 13.5238727,14.6029412 L14.530504,13.5882353 C14.8806366,13.3235294 14.9681698,12.6617647 14.6618037,12.3088235 L13.7864721,10.8970588 C13.9177719,10.7647059 14.0928382,10.4558824 14.1803714,10.3235294 L15.6246684,9.88235294 C16.1061008,9.83823529 16.5,9.44117647 16.5,8.95588235 L16.5,7.54411765 C16.5,6.97058824 16.1061008,6.66176471 15.6246684,6.48529412" id="Fill-1"></path>
                    </g>
                </g>
            </g>
        </g>
    </g>
</svg>