<?xml version="1.0" encoding="UTF-8" standalone="no"?>
<svg width="17px" height="15px" viewBox="0 0 17 15" version="1.1" xmlns="http://www.w3.org/2000/svg" xmlns:xlink="http://www.w3.org/1999/xlink">
    <!-- Generator: Sketch 41.2 (35397) - http://www.bohemiancoding.com/sketch -->
    <title>Fill 4</title>
    <desc>Created with Sketch.</desc>
    <defs></defs>
    <g id="Desktop-Version-1" stroke="none" stroke-width="1" fill="none" fill-rule="evenodd">
        <g id="Dashboard---Version-1---Wide---Co-Brand-3" transform="translate(-1536.000000, -42.000000)" fill="#FFFFFF">
            <g id="Group-4" transform="translate(-1.000000, 0.000000)">
                <g id="Group-26" transform="translate(1530.000000, 34.000000)">
                    <path d="M22.826087,19.4396837 C21.5217391,18.887549 20.173913,18.3163753 18.7608696,17.8594363 C18.5869565,17.8213581 18.4782609,17.7832798 18.4347826,17.6880842 C18.3478261,17.4976929 18.3043478,17.2121061 18.173913,17.0217148 C18.1304348,16.8884409 18.1304348,16.7361279 17.8478261,16.6599714 C17.8478261,16.6409323 17.8043478,16.5647758 17.8043478,16.4886193 C17.8043478,15.974563 17.7173913,15.3843501 18.1304348,14.9274111 L18.1304348,14.8702937 C18.4347826,14.3943156 18.4347826,13.8612201 18.7608696,13.4423594 L18.7608696,13.4233202 C18.8478261,13.0425377 18.8478261,12.7379117 18.9347826,12.4142466 C18.9347826,12.3571292 18.9347826,12.319051 18.8478261,12.319051 C19.1304348,11.4242121 19.173913,10.7578428 19.1304348,10.2437864 C18.7608696,8.64449991 17.2173913,8.26371742 16.5,8.05428705 C16.173913,7.92101317 15.1304348,8.05428705 14.7826087,8.22563917 C14.7391304,8.26371742 14.326087,8.11140442 14.0652174,8.18756092 C13.0217391,8.47314779 12.5217391,9.27279103 12.4782609,10.2437864 C12.4782609,10.9101558 12.5217391,11.7669164 12.4782609,12.0905815 L12.5217391,11.9953859 C12.5217391,12.0715424 12.5217391,12.1286597 12.4782609,12.1476989 C12.3043478,12.2048162 12.3043478,12.319051 12.3043478,12.4904031 L12.3043478,12.7950291 C12.3478261,13.080616 12.4782609,13.385242 12.5217391,13.6137115 C12.5652174,13.842181 12.7826087,14.0135331 12.7826087,14.2229635 C12.8478261,14.6418242 13.0217391,15.0035676 13.3478261,15.3272327 C13.4130435,15.3843501 13.4130435,15.4795457 13.4130435,15.5366631 C13.4130435,15.8412891 13.4130435,16.1649542 13.3478261,16.4886193 C13.3478261,16.5647758 13.1956522,16.6599714 13.1521739,16.6599714 C12.9347826,16.6980497 12.9347826,16.8884409 12.8478261,17.0217148 C12.7826087,17.2501843 12.6956522,17.4976929 12.5652174,17.6880842 C12.5217391,17.7832798 12.4782609,17.8213581 12.4782609,17.8213581 C11.9347826,18.0117493 11.5652174,18.1450232 11.0869565,18.3163753 C10.673913,18.5067666 10.1521739,18.6400404 9.67391304,18.887549 C9.26086957,19.0589012 8.80434783,19.2873707 8.32608696,19.4777619 C8.08695652,19.6110358 7.82608696,19.7633488 7.58695652,19.9347009 C7.58695652,19.9347009 7,21.5720656 7,21.629183 C7,22.0099655 10.8043478,23 15.5,23 C20.1956522,23 24,22.0099655 24,21.629183 C24,21.5720656 23.5434783,19.9156618 23.5434783,19.9156618 C23.2826087,19.7443097 23.1521739,19.5729575 22.826087,19.4396837" id="Fill-4"></path>
                </g>
            </g>
        </g>
    </g>
</svg>