<?xml version="1.0" encoding="UTF-8" standalone="no"?>
<svg width="24px" height="24px" viewBox="0 0 24 24" version="1.1" xmlns="http://www.w3.org/2000/svg" xmlns:xlink="http://www.w3.org/1999/xlink">
    <!-- Generator: Sketch 41.2 (35397) - http://www.bohemiancoding.com/sketch -->
    <title>Combined Shape</title>
    <desc>Created with Sketch.</desc>
    <defs></defs>
    <g id="Desktop-Version-1" stroke="none" stroke-width="1" fill="none" fill-rule="evenodd">
        <g id="Patient-List---Version-1" transform="translate(-1292.000000, -37.000000)" fill="#2D7DAB">
            <g id="Group-4" transform="translate(-1.000000, -1.000000)">
                <g id="Group-25" transform="translate(1275.000000, 20.000000)">
                    <path d="M36.4093448,33.3011681 L41.488065,38.3758253 L41.5043169,38.3920772 C41.833418,38.7333672 42,39.1762316 42,39.619096 C42,40.0700863 41.829355,40.5210767 41.488065,40.8583037 L40.8583037,41.488065 C40.5170137,41.829355 40.0660234,42 39.619096,42 C39.1681056,42 38.7171153,41.829355 38.3758253,41.488065 L33.2971051,36.4093448 C31.7572372,37.3844591 29.9329609,37.9492128 27.9746064,37.9492128 C25.2199086,37.9492128 22.7252412,36.8318944 20.9212798,35.027933 C19.1173184,33.2239716 18,30.7293042 18,27.9746064 C18,25.2199086 19.1173184,22.7252412 20.9212798,20.9212798 C22.7252412,19.1173184 25.2199086,18 27.9746064,18 C30.7293042,18 33.2239716,19.1173184 35.027933,20.9212798 C36.8318944,22.7252412 37.9492128,25.2199086 37.9492128,27.9746064 C37.9492128,29.9329609 37.3844591,31.7572372 36.4093448,33.3011681 Z M32.9488017,23.0511983 C33.5931373,23.6917211 34.1154684,24.4656863 34.4700436,25.3235294 C34.8093682,26.1508715 35,27.0544662 35,28 C35,28.9455338 34.8093682,29.8491285 34.4700436,30.6764706 C34.1154684,31.5343137 33.5931373,32.3044662 32.9488017,32.9488017 C32.3044662,33.5931373 31.5343137,34.1154684 30.6764706,34.4700436 C29.8491285,34.8093682 28.9455338,35 28,35 C27.0544662,35 26.1508715,34.8093682 25.3235294,34.4700436 C24.4656863,34.1154684 23.6917211,33.5931373 23.0511983,32.9488017 C22.4068627,32.3044662 21.8845316,31.5343137 21.5299564,30.6764706 C21.1906318,29.8529412 21,28.9455338 21,28 C21,27.0544662 21.1906318,26.1508715 21.5299564,25.3235294 C21.8883442,24.4656863 22.4068627,23.6917211 23.0511983,23.0511983 C23.6917211,22.4068627 24.4656863,21.8845316 25.3235294,21.5299564 C26.1508715,21.1868192 27.0544662,21 28,21 C28.9455338,21 29.8491285,21.1868192 30.6764706,21.5299564 C31.5343137,21.8845316 32.3044662,22.4068627 32.9488017,23.0511983 Z" id="Combined-Shape"></path>
                </g>
            </g>
        </g>
    </g>
</svg>
