<?xml version="1.0" encoding="UTF-8" standalone="no"?>
<svg width="28px" height="17px" viewBox="0 0 28 17" version="1.1" xmlns="http://www.w3.org/2000/svg" xmlns:xlink="http://www.w3.org/1999/xlink">
    <!-- Generator: Sketch 41.2 (35397) - http://www.bohemiancoding.com/sketch -->
    <title>Page 1</title>
    <desc>Created with Sketch.</desc>
    <defs></defs>
    <g id="Desktop-Version-1" stroke="none" stroke-width="1" fill="none" fill-rule="evenodd">
        <g id="2" transform="translate(-162.000000, -388.000000)" fill="#9FA7B7">
            <g id="1" transform="translate(140.000000, 239.000000)">
                <g id="Page-1" transform="translate(22.000000, 149.000000)">
                    <path d="M24.7579279,7.03171158 C24.8916206,7.56648251 24.5621186,8 23.9970707,8 L18,8 L18,4 L22.0020869,4 C23.1055038,4 24.2169851,4.86794043 24.4853534,5.9414137 L24.7579279,7.03171158 Z M20.9927035,11.9644809 C21.3110964,11.6311475 21.7568464,11.4289617 22.2477021,11.4289617 C22.7359045,11.4289617 23.1816545,11.6311475 23.5027007,11.9644809 C23.8237468,12.295082 24.0227423,12.7540984 24.0227423,13.2568306 C24.0227423,13.7622951 23.8237468,14.2213115 23.5027007,14.5519126 C23.1816545,14.8825137 22.7359045,15.0846995 22.2477021,15.0846995 C21.7568464,15.0846995 21.3110964,14.8825137 20.9927035,14.5519126 C20.6690041,14.2213115 20.4700085,13.7622951 20.4700085,13.2568306 C20.4700085,12.7540984 20.6690041,12.295082 20.9927035,11.9644809 L20.9927035,11.9644809 Z M27,14 L28,14 L28,12.63087 C28,11.5279628 27.1040692,10.6338798 27.0129821,10.6338798 L27.0129821,10.6338798 L27.0055809,7.99207477 C27.0024987,6.89188225 26.4636601,5.28488016 25.7970711,4.3960948 L25.2029289,3.6039052 C24.5385696,2.71809282 23.1132936,2 22.0018986,2 L16,2 L16,14 L18.7082346,14 C18.7082346,14 19.2070501,15.4180328 19.6766796,15.9016393 C20.3346916,16.579235 21.2421112,17 22.2477021,17 C23.2506396,17 24.1607126,16.579235 24.8160713,15.9016393 C25.288354,15.4180328 25.7845163,14 25.7845163,14 L27,14 Z M4.36728892,11.9644809 C4.68833507,11.6311475 5.13408509,11.4289617 5.6222875,11.4289617 C6.11314318,11.4289617 6.55889321,11.6311475 6.87728608,11.9644809 C7.19833223,12.295082 7.39732777,12.7540984 7.39732777,13.2568306 C7.39732777,13.7622951 7.19833223,14.2213115 6.87728608,14.5519126 C6.55623993,14.8825137 6.11314318,15.0846995 5.6222875,15.0846995 C5.13408509,15.0846995 4.68833507,14.8825137 4.36728892,14.5519126 C4.04624277,14.2213115 3.84724723,13.7622951 3.84724723,13.2568306 C3.84724723,12.7540984 4.04624277,12.295082 4.36728892,11.9644809 L4.36728892,11.9644809 Z M16,1.89256225 C16,1.33623679 15.5491031,0.888680264 14.9998068,0.892864109 L2.93460722,0.984761542 C1.82967609,0.99317751 0.933952431,1.8942224 0.933952431,2.99079268 L0.933952431,11.0765027 L0.933952431,11.0765027 C0.418144746,11.0765027 0,11.9695337 0,13.0749872 L0,14 L1,14 L2.08282005,14 C2.08282005,14 2.58163555,15.4180328 3.05391832,15.9016393 C3.71193026,16.579235 4.61934995,17 5.6222875,17 C6.62522505,17 7.53529802,16.579235 8.19330996,15.9016393 C8.66293945,15.4180328 9.16175495,14 9.16175495,14 L16,14 L16,1.89256225 Z" id="Fill-1"></path>
                </g>
            </g>
        </g>
    </g>
</svg>
