<?xml version="1.0" encoding="UTF-8" standalone="no"?>
<svg width="18px" height="22px" viewBox="0 0 18 22" version="1.1" xmlns="http://www.w3.org/2000/svg" xmlns:xlink="http://www.w3.org/1999/xlink">
    <!-- Generator: Sketch 41.2 (35397) - http://www.bohemiancoding.com/sketch -->
    <title>Fill 1</title>
    <desc>Created with Sketch.</desc>
    <defs></defs>
    <g id="Symbols" stroke="none" stroke-width="1" fill="none" fill-rule="evenodd">
        <g id="Patient-Card---Dental" fill="#9FA7B7">
            <path d="M14.0551214,2.99626653 C13.9637865,3.26320184 13.6621299,3.40808708 13.3797459,3.32383316 C10.7176268,2.52381465 9.56379047,4.7018178 9.51519025,4.79552075 C9.51351438,4.79945785 9.51016264,4.80339495 9.50764884,4.80575721 C9.48837634,4.8451282 9.46156242,4.88213693 9.43055883,4.91520856 C9.42804503,4.9167834 9.42804503,4.91757082 9.42636916,4.91993308 C9.39536557,4.95142987 9.3576585,4.97898956 9.31743762,5.00103732 C9.30905827,5.00576184 9.29984099,5.0120612 9.29062371,5.01599829 C9.27637881,5.02387249 9.26129599,5.03410895 9.24537522,5.04040831 C9.22777859,5.04670767 9.21018196,5.04985735 9.19174739,5.0561567 C9.18085424,5.05773154 9.16912315,5.06324348 9.15655413,5.06639316 C9.11130564,5.07662962 9.0668951,5.08056672 9.02164661,5.08056672 L9.02080868,5.08056672 C8.97472226,5.08056672 8.93031171,5.07269252 8.88506323,5.06088122 C8.87333214,5.0561567 8.86160105,5.0522196 8.84903203,5.04828251 C8.8339492,5.04277057 8.8146767,5.03883347 8.797918,5.03017185 C8.7811593,5.02308507 8.76775235,5.01363603 8.75266952,5.00576184 C8.74429017,5.0002499 8.73674876,4.99473796 8.72669354,4.9884386 C8.6873106,4.96481601 8.65295527,4.93568148 8.62278961,4.90182242 C8.62027581,4.90182242 8.62027581,4.90024758 8.61859994,4.89788533 C8.58927222,4.86638853 8.56497211,4.82701754 8.54737548,4.7852843 C8.5431858,4.78213462 8.53983406,4.77977236 8.53815819,4.77583526 C8.49374764,4.6821323 7.41951514,2.46318333 4.74734083,3.14902597 C4.45992917,3.22304343 4.16413816,3.06477205 4.08788609,2.79547448 C4.00660641,2.52617691 4.17754512,2.24821773 4.46411885,2.17498769 C6.72821887,1.59308446 8.26499142,2.62854149 9.0526502,3.62305268 C9.8889092,2.6608257 11.4700923,1.68914967 13.7065405,2.3623936 C13.9906004,2.44743493 14.1456184,2.73090606 14.0551214,2.99626653 M16.0025571,1.14663094 C13.0025571,-0.839392105 10.0025571,0.153619417 9.00255713,1.14663094 C8.00255713,0.153619417 5.00255713,-0.839392105 2.00255713,1.14663094 C0.496925206,2.14337084 0.0419400654,4.43604058 0.00255712643,6.11168855 C-0.0829122305,9.79451727 2.00255713,12.0697577 2.00255713,12.0697577 C2.00255713,12.0697577 3.00255713,13 3.00255713,14 C3.00255713,15 5.00255713,21.9997458 6.00255713,21.9998729 C7.00255713,22 6.00255713,14 9.00255713,14.0557807 C12.0025571,14 11.0025571,22 12.0025571,21.9998729 C13.0025571,21.9997458 15.0025571,15 15.0025571,14 C15.0025571,13 16.0025571,12.0697577 16.0025571,12.0697577 C16.0025571,12.0697577 17.9171632,9.82919274 18.0009567,6.1455821 C18.042778,4.43760441 17.4937763,2.13382951 16.0025571,1.14663094 Z" id="Fill-1"></path>
        </g>
    </g>
</svg>