<?xml version="1.0" encoding="UTF-8" standalone="no"?>
<svg width="16px" height="22px" viewBox="0 0 16 22" version="1.1" xmlns="http://www.w3.org/2000/svg" xmlns:xlink="http://www.w3.org/1999/xlink">
    <!-- Generator: Sketch 41.2 (35397) - http://www.bohemiancoding.com/sketch -->
    <title>Patient Card - Diagnostics</title>
    <desc>Created with Sketch.</desc>
    <defs></defs>
    <g id="Symbols" stroke="none" stroke-width="1" fill="none" fill-rule="evenodd">
        <g id="Patient-Card---Diagnostics" fill="#9FA7B7">
            <path d="M14,10 L16,10 L16,15.4987692 L16,1.00246167 C16,0.448817378 15.5553691,5.5977989e-14 14.9991283,5.39779332e-14 L1.00087166,3.64488557e-15 C0.448105505,1.65732342e-15 5.44888826e-14,0.43945834 5.30597698e-14,1.00246167 L2.30479607e-15,20.9975383 C8.99440033e-16,21.5511826 0.444630861,22 1.00087166,22 L8.49956417,22 L2,22 L2,14.5033012 L2,2.99339768 C2,2.44475929 2.45576096,2 3.00247329,2 L12.9975267,2 C13.5511774,2 14,2.44494629 14,2.99339768 L14,10 Z" id="Combined-Shape"></path>
            <path d="M14.4397284,13.8516543 C13.9494908,13.2213488 13.669355,12.9178684 13.5292871,12.7311112 C13.4008916,12.5676987 13.3308576,12.4626477 13.3308576,12.3926138 C13.2491514,12.2875629 13.3308576,12.1591673 13.4008916,12.077461 C13.4592532,12.0074271 13.5292871,11.7973253 13.5292871,11.7389636 C13.5292871,11.6689297 13.5292871,11.5988958 13.4592532,11.5638788 C13.4592532,11.4471555 13.4592532,11.3070876 13.4008916,11.1786921 C13.4008916,11.1786921 13.0507219,9.68463458 12.9806879,9.50954971 C12.7705861,8.77419329 12.7003395,8.45522065 12,8 C12,7 11,7 10,7 C9,7 8.84040735,7 8,7 C7.15959265,7 5,7 3.92296429,8.82088258 C3.37436505,9.54456669 2.88412743,11.1786921 3.02419533,12.7661282 C3.23429716,14.3769089 3.444399,15.2406609 3.92296429,15.9059834 C4.41320191,16.5362889 4.5532698,17.1549221 4.5532698,17.1549221 C4.5532698,17.1549221 4.20310007,18.7190135 4.07470451,19.3143021 C3.86460267,19.8745736 3.07003395,21.964983 3,22 L11,22 C11,22 10,20 11.3115455,19.4893869 C11.7200769,19.45437 12.1402806,19.419353 12.6305182,19.3143021 C13.1791174,19.2442681 13.4592532,19.2792851 13.669355,19.0108216 C13.8794569,18.7540305 14.0195248,18.6839966 14.0195248,18.4855671 C14.0195248,18.2404482 13.8094229,17.9603125 13.8094229,17.8202446 C13.8094229,17.7151937 13.739389,17.4350579 13.8794569,17.330007 C13.9494908,17.259973 14.1595927,17.259973 14.1595927,16.9915096 C14.1595927,16.7347184 14.0195248,16.6296675 14.0195248,16.6296675 C14.0195248,16.6296675 14.1595927,16.5362889 14.1595927,16.2911701 L14.1595927,16.1511022 C14.1595927,16.0810683 14.0895587,16.0460513 14.0895587,16.0110343 C14.0895587,15.9410004 14.0895587,15.9059834 14.0195248,15.8709664 L14.0195248,15.7659155 C14.0195248,15.6608646 14.0195248,15.602503 14.0895587,15.497452 C14.1595927,15.4507628 14.1595927,15.4157458 14.2296266,15.3807288 C14.2996605,15.3106949 14.3696945,15.2756779 14.4397284,15.2406609 C14.7198642,15.1122653 15,15.0772484 15,14.8321296 C15,14.5519938 14.8599321,14.4469429 14.4397284,13.8516543 Z" id="Fill-1"></path>
        </g>
    </g>
</svg>