<?xml version="1.0" encoding="UTF-8" standalone="no"?>
<svg width="17px" height="22px" viewBox="0 0 17 22" version="1.1" xmlns="http://www.w3.org/2000/svg" xmlns:xlink="http://www.w3.org/1999/xlink">
    <!-- Generator: Sketch 41.2 (35397) - http://www.bohemiancoding.com/sketch -->
    <title>Group 44</title>
    <desc>Created with Sketch.</desc>
    <defs></defs>
    <g id="Symbols" stroke="none" stroke-width="1" fill="none" fill-rule="evenodd">
        <g id="Patient-Card---EDM" fill="#7E2982">
            <g id="Group-44">
                <path d="M12.9810552,16 C12.7257427,19.3562239 9.92161488,22 6.5,22 C2.91014913,22 0,19.0898509 0,15.5 C0,12.4264184 2.1333,9.85109564 5,9.17393184 L5,12.3368156 C3.81752633,12.8985475 3,14.103802 3,15.5 C3,17.4329966 4.56700338,19 6.5,19 C8.26323595,19 9.72194074,17.6961471 9.96455557,16 L12.9810552,16 Z" id="Combined-Shape"></path>
                <path d="M5,2.5 C5,3.88088012 6.11919743,5 7.49993683,5 C8.88054987,5 10,3.88088012 10,2.5 C10,1.11937279 8.88054987,0 7.49993683,0 C6.11919743,0 5,1.11937279 5,2.5 Z" id="Fill-3"></path>
                <path d="M6,6 C5.98470691,6.09819287 6,13 6,13 C6,14 7,15 8,15 L14,15 L14,20 L17,20 L17,14 C17,13 16,12 15,12 C14,12 10,12 10,12 L10,10 C10,10 10,8.04538076 10,8 C10,7 9,6 8,6" id="Fill-5"></path>
            </g>
        </g>
    </g>
</svg>
