<?xml version="1.0" encoding="UTF-8" standalone="no"?>
<svg width="20px" height="22px" viewBox="0 0 20 22" version="1.1" xmlns="http://www.w3.org/2000/svg" xmlns:xlink="http://www.w3.org/1999/xlink">
    <!-- Generator: Sketch 41.2 (35397) - http://www.bohemiancoding.com/sketch -->
    <title>Fill 3</title>
    <desc>Created with Sketch.</desc>
    <defs></defs>
    <g id="Symbols" stroke="none" stroke-width="1" fill="none" fill-rule="evenodd">
        <g id="Patient-Card---Home-Health" fill="#7E2982">
            <path d="M14.1913514,15 L10.8333333,15 L10.8333333,18.4061217 L9.16666667,18.4061217 L9.16666667,15 L5.80859423,15 L5.80859423,13.3333333 L9.16666667,13.3333333 L9.16666667,11.6666667 L9.16666667,10 L10.8333333,10 L10.8333333,13.3333333 L14.1913514,13.3333333 L14.1913514,15 Z M10.8333333,0 L9.16666667,0 L0,8.33333333 L0,10 L2,10 C1.97265945,10.1657335 2,20 2,20 C2,20 2.33333333,22 4,22 L16,22 C17.6666667,22 18,20.8333333 18,20 L18,10 L20,10 L20,8.33333333 L10.8333333,0 Z" id="Fill-3"></path>
        </g>
    </g>
</svg>
