<?xml version="1.0" encoding="UTF-8" standalone="no"?>
<svg width="20px" height="20px" viewBox="0 0 20 20" version="1.1" xmlns="http://www.w3.org/2000/svg" xmlns:xlink="http://www.w3.org/1999/xlink">
    <!-- Generator: Sketch 41.2 (35397) - http://www.bohemiancoding.com/sketch -->
    <title>Fill 1</title>
    <desc>Created with Sketch.</desc>
    <defs></defs>
    <g id="Symbols" stroke="none" stroke-width="1" fill="none" fill-rule="evenodd">
        <g id="Patient-Card---Language" fill="#7E2982">
            <path d="M10,18 C9.87023335,17.8842479 9.73591349,17.7684958 9.73591349,17.7684958 C9.73591349,17.7684958 9.77006261,17.034671 9.71770063,16.8665029 C9.66306204,16.7027027 9.11895276,16.010374 9.11895276,16.010374 L8.29937393,15.979798 C8.29937393,15.979798 8.1172453,15.995086 8.10358566,15.8684139 C8.08992601,15.7461097 7.66192373,15.5866776 7.66192373,15.5866776 C7.66192373,15.5866776 7.56175299,15.3573574 7.51622083,15.2175812 C7.47068867,15.0756211 7.28400683,15.0778051 7.14968697,14.9096369 C7.0153671,14.7436527 6.99715424,14.7742288 6.85600455,14.5842206 C6.71485487,14.3942124 6.72168469,14.4160524 6.65338645,14.2042042 C6.58508822,13.992356 7.01992032,13.5009555 6.97438816,13.3589954 C6.93113261,13.2192192 6.84689812,12.954955 6.84689812,12.954955 C6.84689812,12.954955 6.87877063,12.8566749 6.92202618,12.7431067 L6.15025612,12.9047229 L5.63574274,12.5836746 L5.10984633,12.2145782 L4.33124644,11.9197379 L3.87592487,11.9459459 C3.87592487,11.9459459 3.55719977,11.8258258 3.44336938,11.7253617 C3.32726238,11.6248976 3.13375071,11.6292656 2.76038702,11.4196014 L2.22083096,10 L2,10.5460005 C2.03414912,11.1771772 2.14797951,11.8149058 2.35059761,12.4460824 L2.35287422,12.4526345 C3.01764371,14.5252525 4.4928856,16.1435981 6.34376779,17.0849031 C7.45930563,17.6527437 8.71143995,17.971608 10,18 M16.4683893,10.2067967 L16.2863513,8.97581974 L16.050445,8.40061777 L15.2257018,8.78557784 L14.6034293,8.6714327 C14.6034293,8.6714327 14.304367,7.93508466 14.3136546,7.79631998 C14.3229423,7.66203159 14.0610306,7.49417109 14.0610306,7.49417109 L13.7415354,7.10921102 L13.6077933,6.49596067 L13.7452505,4.96283481 L13.9235734,4.62935196 C13.9235734,4.62935196 14.1241866,4.55549334 14.2263507,4.5196831 C14.3247998,4.48163472 14.2876492,4.06981697 14.2876492,4.06981697 C14.2876492,4.06981697 13.9421487,4.01386347 13.8214092,4.05862627 C13.7025273,4.10338907 13.3867472,4.24886817 13.217712,4.36301331 C13.0505343,4.47715844 13.3811747,4.91135759 13.3811747,4.91135759 L13.2009943,5.58727586 L12.7719049,5.71932611 L12.7867651,5.3433186 L12.281517,5.00088319 L12.2796595,4.39210913 L12.3353854,3.65576108 L11.9508767,3.18798983 L12.0103176,2.55907251 L10.9998214,2.9059842 L10.665466,2.63293113 L10.7620576,2.14501662 L10.9905337,2.04206218 C10.2456643,1.9480603 9.47293187,2.01072822 8.70762957,2.2390185 L9.0642753,2.56354879 C9.0642753,2.56354879 8.9583961,3.606522 8.90824279,3.76095366 C8.85808949,3.9086709 8.50887388,3.82809786 8.50887388,3.82809786 L8.0872146,4.07429325 L7.90517668,3.09846424 L7.68413063,3.17903727 L7.35349031,3.43418523 L7.05814307,4.60473242 L7.02285,5.06802739 L6.6309112,4.99864505 L6.14423838,5.07474181 L5.7653023,5.3992721 L5.57954931,5.70589727 L5.76344477,6.16919224 L6.00863871,6.52729463 L7.27426547,6.19157364 L7.23711488,5.70142099 L7.52874706,5.46194002 L8.02285,5.3321279 L8.34420266,5.5559419 L8.8383056,5.84913823 C8.8383056,5.84913823 9.08164201,6.4355309 8.86431102,6.47805556 L8.27733159,6.58772441 C8.27733159,6.58772441 8.6636978,7.124878 8.43893669,7.21887988 L7.8612449,7.45836085 L7.60676332,8.26632937 L7.85381478,8.08056376 L7.66991933,8.57966897 L7.49902658,8.96462904 C7.49902658,8.96462904 7.64391391,9.5286403 7.67549192,9.651738 C7.7052124,9.7748357 7.51017176,9.79274082 7.38757479,9.83974176 C7.26497782,9.88450455 7.01606882,9.25111095 7.01606882,9.25111095 L6.82845831,9.56445054 L6.18203792,9.82855106 L6,10.5134219 L6.07058613,11.0528136 L6.39565386,11.2788657 L6.43280445,10.6723298 L6.84331855,10.7663317 L6.78016253,11.299009 L8.39128985,11.3392955 L7.50459917,11.7824472 L7.75908076,12.1718836 L8.01913494,12.3979357 L8.66927039,12.6866558 C8.68784568,12.6284641 8.71013604,12.5635581 8.73428393,12.5120809 C8.80301254,12.3554111 8.67298545,12.1897887 8.9627601,12.0308808 C9.25067723,11.8697347 9.60732296,11.7108268 9.71877475,11.7242556 C9.83208407,11.7332081 9.86366208,11.7779709 10.0122645,11.746637 C10.1590093,11.7197793 10.2518858,11.6593495 10.4060608,11.6548733 C10.5583782,11.650397 10.6196767,11.5496807 10.8128598,11.6123486 C11.0041854,11.6727784 11.4202721,11.7555895 11.5465841,11.8137812 C11.6710386,11.8764491 11.7379097,11.8786872 11.8493615,11.970451 C11.9589557,12.0599766 11.8976573,12.162931 12.1372786,12.2323134 C12.3731849,12.3039338 12.4642039,12.402412 12.6703897,12.433746 C12.8765755,12.4628418 13.0883339,12.4382222 13.2425089,12.433746 C13.3948263,12.4292697 13.5007055,12.4941757 13.653023,12.4919376 C13.8053404,12.4874613 13.9706606,12.5344623 13.9706606,12.5344623 L14.1434108,12.94628 C14.1434108,12.94628 13.9780907,13.2461908 14.0672521,13.4252419 C14.1564135,13.6042931 14.2288572,13.7094857 14.2585777,13.8325834 C14.2901557,13.9512048 14.3904623,14.1794951 14.2158545,14.3495937 C14.0393892,14.5219305 14.0245289,14.5532645 13.937225,14.6405519 C13.8480636,14.7233631 13.8554937,14.6696478 13.7923377,14.9315101 C13.7273242,15.1933725 13.6288751,15.4149484 13.6288751,15.4149484 C13.6288751,15.4149484 13.5229959,15.4283772 13.5638615,15.6768107 C13.6065847,15.9274824 12.7644747,16.0259606 12.5991546,16.2475364 C12.435692,16.4668741 12.5007055,16.5496853 12.3576757,16.6817356 C12.2165034,16.8137858 11.9954574,16.896597 11.9954574,16.896597 C11.9954574,16.896597 11.9453041,17.0443142 11.9025809,17.2188892 C11.8598577,17.3957022 12.0437532,17.4337506 11.7948442,17.5792297 C11.5459352,17.7224706 11.3267466,17.7269469 11.3267466,17.7269469 C11.3267466,17.7269469 11.3583247,17.8433302 11.3787575,18 C11.6796773,17.9418084 11.9768821,17.8589972 12.2740869,17.7493283 C14.0443128,17.0935533 17,15 17,14 C16.0188572,13 16.7674516,12.8846091 16.8919061,12.0721643 L16.4683893,10.2067967 Z M6.98901445,0.467493569 L6.99123008,0.465277673 L7.06434589,0.44311872 C9.70316203,-0.365683081 12.4195252,-0.0332987792 14.6772529,1.16328471 C16.9194711,2.35100461 18.7097007,4.38519654 19.5316997,6.98665767 L19.5339153,6.99108946 L19.5560717,7.06421401 C20.3669925,9.70334536 20.0324323,12.4178172 18.8337761,14.6780304 C17.6484136,16.9183006 15.6144647,18.7109599 13.0110986,19.5330571 L13.008883,19.5330571 L12.9357672,19.5552161 C10.296951,20.3662338 7.58058784,20.0338495 5.32064455,18.837266 C3.08064193,17.6473302 1.29041234,15.6153541 0.468413361,13.0116771 L0.46619773,13.0094612 L0.444041423,12.9363367 C-0.366879405,10.2972053 -0.0323191724,7.58051762 1.16412139,5.32030437 C2.35169944,3.08003418 4.3856484,1.28737485 6.98901445,0.467493569" id="Fill-1"></path>
        </g>
    </g>
</svg>
