<?xml version="1.0" encoding="UTF-8" standalone="no"?>
<svg width="24px" height="20px" viewBox="0 0 24 20" version="1.1" xmlns="http://www.w3.org/2000/svg" xmlns:xlink="http://www.w3.org/1999/xlink">
    <!-- Generator: Sketch 41.2 (35397) - http://www.bohemiancoding.com/sketch -->
    <title>Patient Card - Order</title>
    <desc>Created with Sketch.</desc>
    <defs></defs>
    <g id="Symbols" stroke="none" stroke-width="1" fill="none" fill-rule="evenodd">
        <g id="Patient-Card---Order" fill="#7E2982">
            <path d="M9.42857143,0 C8.57142857,0 7.71428571,0.909090909 7.71428571,1.81818182 L7.71428571,3.63636364 L1.71428571,3.63636364 C0.857142857,3.63636364 0,4.54545455 0,5.45454545 L0,10 L24,10 L24,5.45454545 C24,4.54545455 23.1428571,3.63636364 22.2857143,3.63636364 L16.2857143,3.63636364 L16.2857143,1.81818182 C16.2857143,0.909090909 15.4285714,0 14.5714286,0 L9.42857143,0 Z M10,4 L14,4 L14,2 L10,2 L10,4 Z M14.5714286,8 L14.5714286,11.6923077 C14.5714286,12.0689195 14.1304707,12.5384615 13.7142857,12.5384615 L10.2857143,12.5384615 C9.93889348,12.5384615 9.42857143,12.0689195 9.42857143,11.6923077 L9.42857143,8 L0,8 L0,18.3076923 C0,19.1538462 0.857142857,20 1.71428571,20 L22.2857143,20 C23.1428571,20 24,19.1538462 24,18.3076923 L24,8 L14.5714286,8 Z" id="Combined-Shape"></path>
        </g>
    </g>
</svg>
