<?xml version="1.0" encoding="UTF-8" standalone="no"?>
<svg width="22px" height="20px" viewBox="0 0 22 20" version="1.1" xmlns="http://www.w3.org/2000/svg" xmlns:xlink="http://www.w3.org/1999/xlink">
    <!-- Generator: Sketch 41.2 (35397) - http://www.bohemiancoding.com/sketch -->
    <title>Group 2</title>
    <desc>Created with Sketch.</desc>
    <defs></defs>
    <g id="Symbols" stroke="none" stroke-width="1" fill="none" fill-rule="evenodd">
        <g id="Patient-Card---Physical-Medicine">
            <g id="Group-2">
                <path d="M2.11508471,10.8930164 C0.819639989,9.67179768 0,7.89417098 0,6 C0,2.53926262 2.62492653,0 6,0 C8.02959522,0 9.86828233,1.01451829 11.0117238,2.57596745 C12.0778162,0.989917284 13.8926878,0 16,0 C19.3750735,0 22,2.53926262 22,6 C22,7.49935913 21.4864342,8.92569455 20.6298361,10.060845 L20.6948099,10.1122741 L11.1133202,20 L2,11 L2.11508471,10.8930164 Z" id="Combined-Shape" fill="#9FA7B7"></path>
                <polygon id="Path-3" fill="#FFFFFF" points="0 9 5 9 7 6 10 10 12 4 17 9 22 9 22 11 16 11 13 8 11 15 7 9 6 11 1 11"></polygon>
            </g>
        </g>
    </g>
</svg>