<?xml version="1.0" encoding="UTF-8" standalone="no"?>
<svg width="24px" height="20px" viewBox="0 0 24 20" version="1.1" xmlns="http://www.w3.org/2000/svg" xmlns:xlink="http://www.w3.org/1999/xlink">
    <!-- Generator: Sketch 41.2 (35397) - http://www.bohemiancoding.com/sketch -->
    <title>Group 2</title>
    <desc>Created with Sketch.</desc>
    <defs></defs>
    <g id="Symbols" stroke="none" stroke-width="1" fill="none" fill-rule="evenodd">
        <g id="Patient-Card---Quote" fill="#7E2982">
            <g id="Group-2">
                <path d="M22,14.5065565 C22,14.818205 21.8435473,15 21.5306419,15 L2.46935815,15 C2.31290543,15 2,14.818205 2,14.5065565 L2,2.46747277 C2,2.23373638 2.31290543,2 2.46935815,2 L21.5306419,2 C21.8435473,2 22,2.23373638 22,2.46747277 L22,14.5065565 Z M2,0 C0.758858192,0 0,0.691794597 0,2.08 L0,14.8 C0,16.2612688 0.758858192,16.88 2,16.88 L10,16.88 L10,17.92 L7,17.92 C5.73544042,17.92 5.28101324,18.684858 5,20 L19,20 C18.5784801,18.684858 18.2645596,17.92 17,17.92 L14,17.92 L14,16.88 L22,16.88 C23.4050662,16.88 24,16.2612688 24,14.8 L24,2.08 C24,0.691794597 23.4050662,0 22,0 L2,0 Z" id="Fill-1"></path>
                <rect id="Rectangle-6" x="4" y="8" width="16" height="1"></rect>
            </g>
        </g>
    </g>
</svg>
