<?xml version="1.0" encoding="UTF-8" standalone="no"?>
<svg width="16px" height="22px" viewBox="0 0 16 22" version="1.1" xmlns="http://www.w3.org/2000/svg" xmlns:xlink="http://www.w3.org/1999/xlink">
    <!-- Generator: Sketch 41.2 (35397) - http://www.bohemiancoding.com/sketch -->
    <title>Group 2</title>
    <desc>Created with Sketch.</desc>
    <defs></defs>
    <g id="Symbols" stroke="none" stroke-width="1" fill="none" fill-rule="evenodd">
        <g id="Patient-Card---Report">
            <g id="Group-2">
                <path d="M5,0 C4.22222222,1.45716772e-16 3,0.461538462 3,2 L1,2 C0.46958611,2 0,2.45355712 0,3 L0,21 C-1.11022302e-16,21.5901583 0.46958611,22 1,22 L15,22 C15.5967156,22 16,21.5901583 16,21 L16,3 C16,2.45355712 15.5967156,2 15,2 L13,2 C13,0.461538462 11.5083133,0 11,0 L5,0 Z" id="Path" fill="#7E2982"></path>
                <path d="M2,19.1155804 L2,4.90968875 C2,4.02526913 2.42028986,4.02526913 2.83333333,4.02526913 L13.1666667,4 C13.6884058,4 14,4.02526913 14,4.90968875 L14,19.1155804 C14,20 13.6884058,20 13.1666667,20 L2.83333333,20 C2.42028986,20 2,20 2,19.1155804 Z" id="Path" fill="#FFFFFF"></path>
                <rect id="Rectangle" fill="#7E2982" x="4" y="15" width="8" height="2"></rect>
                <rect id="Rectangle" fill="#7E2982" x="4" y="11" width="8" height="2"></rect>
                <rect id="Rectangle" fill="#7E2982" x="4" y="7" width="8" height="2"></rect>
                <ellipse id="Oval-10" fill="#FFFFFF" cx="8" cy="1.98901099" rx="1" ry="0.989010989"></ellipse>
            </g>
        </g>
    </g>
</svg>
