<?xml version="1.0" encoding="UTF-8" standalone="no"?>
<svg width="24px" height="16px" viewBox="0 0 24 16" version="1.1" xmlns="http://www.w3.org/2000/svg" xmlns:xlink="http://www.w3.org/1999/xlink">
    <!-- Generator: Sketch 41.2 (35397) - http://www.bohemiancoding.com/sketch -->
    <title>Group 2</title>
    <desc>Created with Sketch.</desc>
    <defs></defs>
    <g id="Symbols" stroke="none" stroke-width="1" fill="none" fill-rule="evenodd">
        <g id="Patient-Card---Transportation" fill="#7E2982">
            <g id="Group-2">
                <path d="M22,13 C22,14.6568542 20.6568542,16 19,16 C17.3431458,16 16,14.6568542 16,13 L14,13 L14,1 L20.0018986,1 C21.1132936,1 22,1.89449617 22,2.99791312 L22,7 C23.1052949,7 24,7.8954305 24,9 L24,11 L24,13 L23,13 L22,13 Z M20,7 L15,7 L15,3 L17.9951185,3 C19.102384,3 20,3.88772964 20,5 L20,7 Z M19.0014937,11 C19.5511576,11 20.0530246,11.2212257 20.4144884,11.5859492 C20.7759522,11.9476831 21,12.4499253 21,13 C21,13.5530643 20.7759522,14.0553064 20.4144884,14.4170404 C20.0530246,14.7787743 19.5511576,15 19.0014937,15 C18.4488424,15 17.9469754,14.7787743 17.5884989,14.4170404 C17.2240478,14.0553064 17,13.5530643 17,13 C17,12.4499253 17.2240478,11.9476831 17.5884989,11.5859492 C17.9469754,11.2212257 18.4488424,11 19.0014937,11 Z" id="Combined-Shape"></path>
                <path d="M8,13 C8,14.6568542 6.65685425,16 5,16 C3.34314575,16 2,14.6568542 2,13 L1,13 L0,13 L0,12.9942627 C0,11.8947051 0.44771525,11 1,11 L1,1.99201702 C1,0.900176167 1.89805351,0 3.00585866,0 L13.9931545,0 C14.5500512,0 15,0.44704472 15,0.998502329 L15,13 L8,13 Z M5,11 C5.55306428,11 6.05530643,11.2212257 6.41405082,11.5859492 C6.77578475,11.9476831 7,12.4499253 7,13 C7,13.5530643 6.77578475,14.0553064 6.41405082,14.4170404 C6.05231689,14.7787743 5.55306428,15 5,15 C4.44992526,15 3.94768311,14.7787743 3.58594918,14.4170404 C3.22421525,14.0553064 3,13.5530643 3,13 C3,12.4499253 3.22421525,11.9476831 3.58594918,11.5859492 C3.94768311,11.2212257 4.44992526,11 5,11 Z M8,7 L3,7 L3,3 L8,3 L8,7 Z M14,7 L9,7 L9,3 L14,3 L14,7 Z" id="Combined-Shape"></path>
            </g>
        </g>
    </g>
</svg>
