<svg viewBox="237 29 118 23" xmlns="http://www.w3.org/2000/svg">
  <path d="M331.022 31.598c1.766-.077 2.703.926 3.01 2.153.61 2.437-.75 4.824-3.01 6.36v-.868c.26-.138.96-.714 1.147-1.016-.288-.1-1.124-.174-1.124-.168v-1.1c.786-.033 1.356.066 1.87.183.214-.335.343-.62.423-1.002-.547-.102-1.508-.076-2.294.012v-.772c.786-.168 1.96-.296 2.49-.237.04-.243.036-.55-.044-.822-.526-.043-1.66.112-2.446.292v-.625c.786-.232 1.785-.454 2.312-.488-.046-.222-.177-.482-.34-.626-.492.038-1.186.233-1.972.42v-.584c0-.16 1.05-.338 1.435-.362-.207-.14-.874-.333-1.452-.294l-.006-.452z"></path>
  <path d="M332.515 31.345c4.084-.755 5.944 1.05 4.838 5.458-1.028 3.625-3.17 6.06-6.307 7.927v-1.907c0 .15.406.444.565.71.35-.172.81-.505 1.05-.77-.25-.354-1.168-1.254-1.634-1.534-.002.005-.003-.238-.002-.247.426-.228 1.162-.77 1.48-1.195.525.227 1.557 1.074 1.79 1.38.37-.376.814-.987 1-1.4-.415-.36-1.22-.826-1.814-1.036.327-.34.655-.902.803-1.298.513.114 1.453.386 1.89.644.217-.384.382-.887.493-1.434-.442-.177-1.348-.345-1.935-.407.076-.242.134-.863.12-1.118.667-.017 1.594.08 2.086.2.07-.3.092-.65.033-1.002-.573-.09-1.532-.145-2.187-.094-.003-.272-.097-.674-.195-.863.52-.085 1.572-.095 2.177-.023-.094-.29-.21-.584-.476-.802-.424-.037-1.395.006-1.995.115-.114-.217-.306-.447-.51-.584.387-.12 1.19-.202 1.632-.174-.358-.185-1.034-.36-2.078-.22-.385-.247-.825-.327-.825-.327"></path>
  <path d="M350.65 49.255V29.632h-19.604V31.1c3.136-.905 8.492-.392 11.777 2.565 2.67 2.4 4.49 5.388 4.716 9.58.134 2.552-.53 5.224-1.158 6.01h4.267z"></path>
  <path d="M339.566 33.815c-.374-.164-.943-.33-1.4-.356.084.28.126.62.136.98.46.06 1.243.28 1.644.453.15.466.16.868.156 1.323-.445-.256-1.262-.58-1.843-.687-.018.404-.113.99-.253 1.43.607.193 1.485.642 1.895.937-.08.6-.29 1.28-.587 1.854-.445-.396-1.342-.955-1.914-1.2-.17.533-.657 1.548-.997 1.955.503.306 1.34 1.046 1.664 1.45-.373.67-.81 1.202-1.29 1.608-.26-.467-.91-1.322-1.37-1.686-.366.61-1.242 1.502-1.844 1.88.41.4.967 1.186 1.217 1.636-.34.35-.965.788-1.49 1.057-.19-.616-.486-1.258-.834-1.787-.34.346-.624.63-1.41.914v2.783c3.922-1.316 8.35-5.09 9.47-10.196.55-2.485-.01-3.99-.524-4.812-.848-1.34-2.4-1.608-3.103-1.71.297.155.718.534.93.865 1.142.21 1.552.907 1.746 1.308"></path>
  <path d="M331.046 49.255v-.14c.786-.348 2.49-1.08 3.06-1.582.2.483.395 1.272.453 1.727.518-.32 1.135-.74 1.562-1.24-.124-.41-.385-.958-.64-1.35.742-.506 1.703-1.424 2.273-2.136.233.355.512.98.653 1.458.565-.47 1.248-1.303 1.596-1.876-.214-.392-.57-.857-.945-1.21.557-.668 1.16-1.837 1.34-2.44.318.18.874.798 1.077 1.116.396-.733.635-1.495.77-2.334-.254-.3-.7-.654-1.12-.845.133-.47.27-1.264.244-1.78.355.156.84.51 1.088.776.055-.53.01-1.054-.127-1.575-.23-.23-.74-.533-1.047-.62-.032-.35-.174-.78-.286-1.01.254.052.753.367.953.53-.2-.478-.737-.945-1.152-1.1-.126-.227-.362-.588-.58-.796 2.295.776 2.57 2.405 2.74 3.054.383 2.47-.134 4.624-1.234 6.75-1.393 2.697-3.11 4.266-6.09 6.62h-4.588z"></path>
  <path d="M336.714 49.255c1.057-.786 1.778-1.28 2.453-2.134.215.488.33 1.442.33 1.442.49-.414 1.506-1.503 1.85-2.11-.106-.336-.338-.857-.527-1.097.667-.664 1.327-1.87 1.565-2.676.275.273.55.757.654 1.072.427-.784.82-1.742 1.006-2.803-.146-.31-.388-.656-.658-.92.193-.548.297-1.334.28-1.978.2.154.56.604.737.923-.007-1.102-.113-1.812-.776-2.405-.013-.324-.115-.876-.312-1.3.974.83 1.833 1.88 1.586 4.338-.37 3.707-2.557 7.292-5.132 9.647h-3.058zM343.82 49.255c.546 0 .817-.935 1.12-1.577.13.31.193.713.208 1.13.16-.472 1.028-1.886 1.01-3.893.303-.982.477-2.095.52-2.93.303 1.44.303 4.915-1.1 7.27h-1.757z"></path>
  <path d="M345.736 40.687c.064-.388-.026-1.014-.303-1.426.01-.293-.057-1.01-.116-1.328.575.79 1.06 1.617.874 3.69-.32 2.804-1.167 6.06-3.32 7.633h-.835c.02 0-.02-.81-.148-1.228.8-.825 1.67-2.166 1.995-3.167.226.46.345.904.4 1.454.57-1.006.996-2.466 1.12-3.464-.077-.313-.225-.623-.382-.854.194-.488.36-1.426.368-1.936.137.14.28.453.348.627"></path>
</svg>
